<svg id="svg" version="1.1" width="874" height="768" xmlns="http://www.w3.org/2000/svg" xmlns:xlink="http://www.w3.org/1999/xlink" style="display: block;"><g id="svgg"><path id="path0" d="M75.972 289.438 C 45.081 295.901,42.995 342.748,73.322 348.937 C 81.512 350.608,99.925 348.593,101.709 345.830 C 102.385 344.784,102.121 314.579,101.431 314.007 C 100.988 313.639,97.373 313.521,89.188 313.608 L 77.574 313.730 77.574 318.307 L 77.574 322.883 84.096 323.010 L 90.618 323.137 90.618 330.851 L 90.618 338.564 88.585 339.076 C 73.099 342.975,61.274 331.417,64.027 315.072 C 66.370 301.165,78.683 295.443,95.324 300.527 C 97.871 301.305,99.503 301.595,99.779 301.319 C 100.321 300.778,101.426 291.663,101.002 291.238 C 99.247 289.484,81.763 288.226,75.972 289.438 M153.352 289.285 C 137.122 292.469,127.993 304.730,128.711 322.381 C 129.621 344.768,149.969 355.624,175.224 347.196 L 178.261 346.183 178.261 329.956 L 178.261 313.730 166.647 313.608 C 152.964 313.463,153.776 313.169,153.776 318.271 C 153.776 323.225,153.604 323.112,161.190 323.112 L 167.506 323.112 167.506 330.860 L 167.506 338.608 164.876 339.154 C 150.491 342.140,140.489 334.069,140.459 319.451 C 140.425 302.606,153.015 295.011,171.900 300.484 C 174.603 301.267,176.039 301.490,176.354 301.175 C 176.858 300.671,178.099 292.012,177.749 291.445 C 176.617 289.614,159.433 288.092,153.352 289.285 M256.909 289.659 C 229.991 297.362,228.882 342.696,255.458 348.961 C 261.968 350.495,270.621 349.602,276.406 346.799 C 295.848 337.377,297.401 301.611,278.792 291.832 C 272.947 288.761,263.370 287.810,256.909 289.659 M3.753 289.794 C 2.852 290.695,2.971 347.979,3.876 348.729 C 4.955 349.625,28.234 349.117,31.730 348.121 C 47.032 343.762,51.894 325.774,39.713 318.592 L 37.092 317.046 39.111 315.504 C 47.514 309.088,45.367 294.818,35.439 291.103 C 30.547 289.273,5.316 288.230,3.753 289.794 M190.018 289.827 C 189.598 290.333,189.495 297.412,189.585 319.502 L 189.703 348.513 195.195 348.513 L 200.686 348.513 200.809 336.499 L 200.931 324.485 203.326 324.505 L 205.721 324.526 213.272 336.632 L 220.824 348.737 227.117 348.739 C 232.870 348.741,233.410 348.671,233.410 347.919 C 233.410 347.466,229.805 341.652,225.400 334.998 C 217.072 322.419,216.945 322.197,218.091 322.197 C 218.476 322.197,219.969 321.601,221.409 320.872 C 234.472 314.263,233.421 295.311,219.729 290.573 C 215.832 289.224,191.034 288.602,190.018 289.827 M300.423 289.857 C 300.294 290.193,300.249 300.645,300.323 313.083 L 300.458 335.698 301.562 338.444 C 307.742 353.815,337.498 353.812,344.692 338.438 C 347.062 333.374,347.335 330.390,347.352 309.324 C 347.371 287.060,348.002 289.159,341.352 289.343 L 336.613 289.474 336.364 310.526 C 336.107 332.247,336.039 333.011,334.100 336.150 C 331.129 340.956,319.041 341.863,314.493 337.621 C 311.408 334.744,311.455 335.129,311.310 311.696 C 311.220 297.284,311.018 290.248,310.682 289.843 C 309.969 288.984,300.753 288.996,300.423 289.857 M359.036 290.275 C 358.898 290.841,358.843 304.176,358.913 319.908 L 359.039 348.513 364.416 348.642 L 369.794 348.770 369.794 338.230 L 369.794 327.689 374.714 327.681 C 391.673 327.653,401.594 317.969,399.166 303.811 C 397.239 292.573,390.752 289.267,370.604 289.253 L 359.285 289.245 359.036 290.275 M27.086 298.917 C 31.429 299.848,33.628 303.343,32.502 307.524 C 31.294 312.010,28.377 313.516,20.252 313.851 L 14.645 314.082 14.645 306.240 L 14.645 298.398 19.657 298.398 C 22.414 298.398,25.757 298.631,27.086 298.917 M214.892 299.607 C 217.553 300.988,218.462 302.508,218.681 305.939 C 219.112 312.713,213.564 316.156,203.888 315.120 L 200.915 314.801 200.915 306.540 L 200.915 298.279 207.023 298.486 C 211.956 298.653,213.471 298.869,214.892 299.607 M267.369 298.912 C 276.810 300.913,282.077 311.941,279.683 324.697 C 276.020 344.220,252.758 345.002,248.778 325.736 C 245.388 309.322,254.494 296.183,267.369 298.912 M381.729 299.378 C 387.268 301.038,389.599 307.415,386.726 313.047 C 384.902 316.623,381.378 318.078,374.542 318.078 L 369.794 318.078 369.794 308.467 L 369.794 298.856 374.890 298.856 C 377.692 298.856,380.770 299.091,381.729 299.378 M25.570 323.134 C 32.422 324.246,35.566 328.172,34.144 333.838 C 33.031 338.274,25.649 340.897,17.237 339.846 L 14.645 339.522 14.645 331.088 L 14.645 322.654 18.650 322.658 C 20.852 322.660,23.967 322.874,25.570 323.134 " stroke="none" fill="#000000" fill-rule="evenodd"></path><path id="path1" d="M189.931 35.734 C 163.138 38.637,147.738 62.463,157.564 85.812 C 160.894 93.728,172.024 103.890,177.362 103.890 C 180.534 103.890,180.495 104.910,177.274 106.198 C 162.324 112.174,159.954 126.898,172.975 132.904 C 174.437 133.579,175.194 134.145,174.805 134.273 C 174.440 134.393,172.906 134.827,171.396 135.238 C 143.739 142.763,141.200 175.960,167.274 189.131 C 184.801 197.985,215.615 197.479,232.337 188.062 C 249.818 178.219,254.436 154.258,241.371 141.193 C 235.170 134.992,226.285 132.061,205.950 129.510 C 189.429 127.437,185.437 125.772,183.976 120.345 C 182.400 114.494,186.137 111.224,197.303 108.685 C 210.371 105.713,214.296 104.560,218.315 102.516 C 237.397 92.811,242.866 68.509,229.176 54.250 C 227.477 52.480,226.087 50.980,226.087 50.917 C 226.087 50.853,229.588 50.801,233.867 50.801 L 241.648 50.801 241.648 43.323 L 241.648 35.846 227.843 35.543 C 210.614 35.165,194.428 35.247,189.931 35.734 M202.078 52.880 C 221.616 57.936,221.542 86.211,201.977 91.307 C 188.695 94.766,176.184 87.667,174.348 75.629 C 171.968 60.018,185.802 48.668,202.078 52.880 M213.043 147.063 C 225.504 149.715,231.267 157.194,228.130 166.641 C 223.124 181.712,184.370 184.331,172.130 170.426 C 164.948 162.266,169.634 151.118,181.711 147.633 C 187.735 145.895,205.994 145.563,213.043 147.063 " stroke="none" fill="#ffffff" fill-rule="evenodd"></path><path id="path2" d="M112.128 116.659 L 112.128 232.494 162.815 232.490 C 227.218 232.484,238.382 231.863,254.920 227.369 C 290.216 217.776,310.572 191.136,305.964 160.567 C 302.303 136.279,278.729 117.362,248.618 114.550 C 245.562 114.265,245.602 113.851,248.741 113.293 C 301.039 103.983,311.388 35.369,264.073 11.646 C 244.835 2.000,239.065 1.376,166.247 1.059 L 112.128 0.823 112.128 116.659 M233.713 35.240 L 242.105 35.240 242.105 43.249 L 242.105 51.259 234.513 51.259 L 226.921 51.259 229.718 54.311 C 243.280 69.111,237.523 93.391,218.253 102.663 C 213.000 105.190,208.888 106.447,197.882 108.890 C 186.459 111.426,183.073 114.234,184.199 120.237 C 185.123 125.162,189.538 127.022,205.200 129.085 C 227.204 131.984,235.217 134.582,241.482 140.846 C 253.423 152.787,251.126 174.421,236.743 185.482 C 219.840 198.482,182.365 199.418,163.636 187.310 C 141.116 172.749,144.598 143.754,169.868 135.424 L 174.289 133.966 172.052 132.851 C 159.970 126.830,162.209 112.405,176.167 106.337 C 178.051 105.518,179.292 104.752,178.926 104.634 C 178.560 104.515,177.223 104.092,175.954 103.692 C 153.043 96.472,147.184 62.818,165.814 45.451 C 175.253 36.652,183.867 34.665,210.944 35.041 C 218.851 35.151,229.097 35.240,233.713 35.240 M193.135 52.466 C 180.973 54.241,174.371 61.238,174.371 72.351 C 174.371 95.479,209.940 99.500,215.792 77.035 C 219.148 64.149,207.802 50.735,194.818 52.236 C 194.522 52.271,193.764 52.374,193.135 52.466 M190.618 146.473 C 176.607 147.655,169.329 152.885,169.341 161.760 C 169.356 172.796,179.633 178.646,199.085 178.694 C 218.309 178.742,228.534 172.950,228.534 162.014 C 228.534 150.259,214.403 144.467,190.618 146.473 " stroke="none" fill="#f68b1f" fill-rule="evenodd"></path><path id="path3" d="M197.605 35.114 C 198.428 35.216,199.664 35.214,200.351 35.110 C 201.039 35.005,200.366 34.922,198.856 34.924 C 197.346 34.927,196.783 35.012,197.605 35.114 M208.581 35.120 C 209.903 35.212,212.065 35.212,213.387 35.120 C 214.708 35.028,213.627 34.952,210.984 34.952 C 208.341 34.952,207.260 35.028,208.581 35.120 M237.404 35.571 C 238.216 35.672,239.658 35.673,240.608 35.574 C 241.557 35.475,240.892 35.392,239.130 35.390 C 237.368 35.388,236.592 35.469,237.404 35.571 M210.726 86.156 L 209.382 87.643 210.870 86.299 C 212.256 85.046,212.567 84.668,212.214 84.668 C 212.135 84.668,211.466 85.338,210.726 86.156 M168.163 111.327 L 166.819 112.815 168.307 111.470 C 169.125 110.731,169.794 110.062,169.794 109.983 C 169.794 109.629,169.416 109.941,168.163 111.327 M192.334 146.311 C 192.775 146.426,193.495 146.426,193.936 146.311 C 194.376 146.196,194.016 146.102,193.135 146.102 C 192.254 146.102,191.894 146.196,192.334 146.311 M201.722 146.319 C 202.291 146.429,203.115 146.424,203.552 146.310 C 203.990 146.195,203.524 146.106,202.517 146.111 C 201.510 146.116,201.152 146.210,201.722 146.319 M249.107 160.183 C 249.107 161.568,249.193 162.134,249.298 161.442 C 249.403 160.749,249.403 159.617,249.298 158.924 C 249.193 158.232,249.107 158.799,249.107 160.183 M168.994 161.785 C 168.999 162.792,169.093 163.150,169.202 162.580 C 169.312 162.011,169.308 161.187,169.193 160.750 C 169.079 160.312,168.989 160.778,168.994 161.785 M197.597 179.282 C 198.667 179.379,200.418 179.379,201.487 179.282 C 202.557 179.186,201.682 179.107,199.542 179.107 C 197.403 179.107,196.527 179.186,197.597 179.282 M202.860 195.739 C 203.301 195.854,204.022 195.854,204.462 195.739 C 204.903 195.624,204.542 195.530,203.661 195.530 C 202.780 195.530,202.420 195.624,202.860 195.739 " stroke="none" fill="#f79a3d" fill-rule="evenodd"></path><path id="path4" d="M202.640 35.114 C 203.462 35.216,204.698 35.214,205.386 35.110 C 206.073 35.005,205.400 34.922,203.890 34.924 C 202.380 34.927,201.817 35.012,202.640 35.114 M190.961 35.556 C 191.402 35.671,192.122 35.671,192.563 35.556 C 193.003 35.441,192.643 35.346,191.762 35.346 C 190.881 35.346,190.521 35.441,190.961 35.556 M226.430 35.580 C 228.255 35.667,231.241 35.667,233.066 35.580 C 234.891 35.493,233.398 35.422,229.748 35.422 C 226.098 35.422,224.605 35.493,226.430 35.580 M241.750 43.135 L 241.648 50.801 233.867 50.801 C 229.588 50.801,226.087 50.955,226.086 51.144 C 226.085 51.771,241.668 51.281,241.911 50.647 C 242.031 50.334,242.067 46.791,241.990 42.773 L 241.851 35.469 241.750 43.135 M164.760 46.453 C 163.648 47.586,162.841 48.513,162.967 48.513 C 163.093 48.513,164.106 47.586,165.217 46.453 C 166.329 45.320,167.136 44.394,167.010 44.394 C 166.884 44.394,165.871 45.320,164.760 46.453 M227.460 52.317 C 227.460 52.396,228.129 53.065,228.947 53.805 L 230.435 55.149 229.091 53.661 C 227.838 52.275,227.460 51.964,227.460 52.317 M216.607 72.082 C 216.610 73.341,216.699 73.802,216.804 73.106 C 216.910 72.410,216.907 71.380,216.798 70.818 C 216.690 70.255,216.603 70.824,216.607 72.082 M236.763 72.998 C 236.765 74.760,236.848 75.424,236.947 74.475 C 237.046 73.525,237.045 72.084,236.944 71.271 C 236.842 70.459,236.761 71.236,236.763 72.998 M174.038 72.311 C 174.038 73.444,174.127 73.907,174.236 73.341 C 174.345 72.775,174.345 71.848,174.236 71.281 C 174.127 70.715,174.038 71.178,174.038 72.311 M178.032 84.811 C 178.032 84.890,178.701 85.560,179.519 86.299 L 181.007 87.643 179.663 86.156 C 178.410 84.769,178.032 84.458,178.032 84.811 M227.460 95.881 C 226.348 97.014,225.542 97.941,225.668 97.941 C 225.793 97.941,226.806 97.014,227.918 95.881 C 229.029 94.748,229.836 93.822,229.710 93.822 C 229.584 93.822,228.572 94.748,227.460 95.881 M162.471 94.422 C 162.471 94.501,163.141 95.170,163.959 95.910 L 165.446 97.254 164.102 95.767 C 162.849 94.380,162.471 94.069,162.471 94.422 M164.408 120.824 C 164.408 121.705,164.502 122.065,164.618 121.625 C 164.733 121.184,164.733 120.463,164.618 120.023 C 164.502 119.582,164.408 119.943,164.408 120.824 M167.048 128.747 C 167.048 128.826,167.717 129.495,168.535 130.235 L 170.023 131.579 168.679 130.092 C 167.426 128.705,167.048 128.394,167.048 128.747 M204.691 146.311 C 205.132 146.426,205.852 146.426,206.293 146.311 C 206.733 146.196,206.373 146.102,205.492 146.102 C 204.611 146.102,204.251 146.196,204.691 146.311 M172.515 152.746 L 170.938 154.462 172.654 152.885 C 173.598 152.018,174.371 151.245,174.371 151.169 C 174.371 150.819,173.983 151.149,172.515 152.746 M223.799 151.631 C 223.799 151.709,224.468 152.379,225.286 153.118 L 226.773 154.462 225.429 152.975 C 224.176 151.588,223.799 151.277,223.799 151.631 M148.888 162.014 C 148.888 163.650,148.971 164.319,149.072 163.501 C 149.174 162.683,149.174 161.344,149.072 160.526 C 148.971 159.708,148.888 160.378,148.888 162.014 M193.484 179.271 C 194.053 179.381,194.877 179.376,195.314 179.262 C 195.752 179.147,195.286 179.058,194.279 179.063 C 193.272 179.068,192.914 179.162,193.484 179.271 M203.776 179.263 C 204.216 179.378,204.937 179.378,205.378 179.263 C 205.818 179.148,205.458 179.054,204.577 179.054 C 203.696 179.054,203.335 179.148,203.776 179.263 M197.152 195.759 C 198.228 195.856,199.876 195.854,200.813 195.756 C 201.750 195.658,200.870 195.579,198.856 195.580 C 196.842 195.582,196.075 195.662,197.152 195.759 " stroke="none" fill="#fbc996" fill-rule="evenodd"></path></g></svg>