<svg id="svg" version="1.1" width="1000" height="282" xmlns="http://www.w3.org/2000/svg" xmlns:xlink="http://www.w3.org/1999/xlink" style="display: block;"><g id="svgg"><path id="path0" d="M72.153 17.400 C 72.153 20.040,72.218 21.068,72.297 19.684 C 72.375 18.301,72.374 16.141,72.295 14.884 C 72.216 13.628,72.152 14.760,72.153 17.400 M337.600 18.424 C 337.600 19.137,337.767 19.544,338.000 19.400 C 338.220 19.264,338.400 18.713,338.400 18.176 C 338.400 17.639,338.220 17.200,338.000 17.200 C 337.780 17.200,337.600 17.751,337.600 18.424 M260.990 74.248 C 261.347 74.604,261.759 74.774,261.907 74.626 C 262.056 74.478,261.912 74.189,261.588 73.984 C 260.643 73.387,260.287 73.544,260.990 74.248 M263.371 93.200 C 263.371 93.640,263.513 94.000,263.686 94.000 C 263.859 94.000,264.000 93.640,264.000 93.200 C 264.000 92.760,263.859 92.400,263.686 92.400 C 263.513 92.400,263.371 92.760,263.371 93.200 " stroke="none" fill="#000000" fill-rule="evenodd"></path><path id="path1" d="M125.800 3.200 C 125.508 3.672,125.887 4.400,126.424 4.400 C 126.631 4.400,126.800 4.040,126.800 3.600 C 126.800 2.756,126.218 2.524,125.800 3.200 M392.652 3.800 C 392.727 4.240,392.792 4.727,392.795 4.882 C 392.801 5.213,395.558 3.512,395.583 3.161 C 395.592 3.029,395.048 2.906,394.373 2.887 C 393.350 2.858,393.225 2.948,393.622 3.426 C 394.001 3.883,393.971 4.000,393.478 4.000 C 393.138 4.000,392.781 3.775,392.687 3.500 C 392.592 3.225,392.577 3.360,392.652 3.800 M313.600 5.000 C 313.600 5.550,313.780 6.000,314.000 6.000 C 314.220 6.000,314.400 5.550,314.400 5.000 C 314.400 4.450,314.220 4.000,314.000 4.000 C 313.780 4.000,313.600 4.450,313.600 5.000 M157.365 12.400 C 157.365 16.250,157.425 17.825,157.498 15.900 C 157.571 13.975,157.571 10.825,157.498 8.900 C 157.425 6.975,157.365 8.550,157.365 12.400 M218.400 11.000 C 218.400 14.333,218.553 16.400,218.800 16.400 C 219.047 16.400,219.200 14.333,219.200 11.000 C 219.200 7.667,219.047 5.600,218.800 5.600 C 218.553 5.600,218.400 7.667,218.400 11.000 M226.406 11.476 C 226.410 15.449,226.540 17.202,226.800 16.800 C 227.318 15.998,227.318 6.120,226.800 5.800 C 226.540 5.639,226.402 7.628,226.406 11.476 M220.157 11.200 C 220.157 14.170,220.220 15.385,220.297 13.900 C 220.374 12.415,220.374 9.985,220.297 8.500 C 220.220 7.015,220.157 8.230,220.157 11.200 M212.000 10.400 C 212.000 12.463,212.146 13.557,212.400 13.400 C 212.620 13.264,212.800 11.914,212.800 10.400 C 212.800 8.886,212.620 7.536,212.400 7.400 C 212.146 7.243,212.000 8.337,212.000 10.400 M245.867 7.867 C 245.406 8.327,245.575 8.800,246.200 8.800 C 246.530 8.800,246.800 8.530,246.800 8.200 C 246.800 7.575,246.327 7.406,245.867 7.867 M282.162 13.800 C 282.162 17.320,282.224 18.706,282.298 16.881 C 282.372 15.056,282.372 12.176,282.297 10.481 C 282.222 8.786,282.161 10.280,282.162 13.800 M198.100 8.297 C 199.585 8.374,202.015 8.374,203.500 8.297 C 204.985 8.220,203.770 8.157,200.800 8.157 C 197.830 8.157,196.615 8.220,198.100 8.297 M206.909 10.400 C 206.909 11.390,206.987 11.795,207.082 11.300 C 207.178 10.805,207.178 9.995,207.082 9.500 C 206.987 9.005,206.909 9.410,206.909 10.400 M80.860 11.180 C 81.032 11.696,81.581 11.788,81.630 11.310 C 81.647 11.151,81.444 10.948,81.180 10.860 C 80.916 10.772,80.772 10.916,80.860 11.180 M25.200 14.000 C 24.715 14.314,24.772 14.389,25.500 14.394 C 25.995 14.397,26.400 14.220,26.400 14.000 C 26.400 13.499,25.976 13.499,25.200 14.000 M75.900 15.757 C 75.156 16.321,74.954 17.200,75.567 17.200 C 76.479 17.200,77.200 16.651,77.200 15.957 C 77.200 15.073,76.868 15.022,75.900 15.757 M323.300 19.497 C 324.785 19.574,327.215 19.574,328.700 19.497 C 330.185 19.420,328.970 19.357,326.000 19.357 C 323.030 19.357,321.815 19.420,323.300 19.497 M394.702 20.200 C 394.807 20.750,394.962 21.200,395.047 21.200 C 395.131 21.200,395.200 20.750,395.200 20.200 C 395.200 19.650,395.045 19.200,394.855 19.200 C 394.666 19.200,394.597 19.650,394.702 20.200 M211.600 20.357 C 211.600 20.774,211.896 21.228,212.257 21.367 C 213.126 21.700,213.426 21.354,212.860 20.673 C 212.611 20.372,212.525 20.008,212.670 19.863 C 212.815 19.718,212.633 19.600,212.267 19.600 C 211.879 19.600,211.600 19.917,211.600 20.357 M352.882 19.896 C 354.358 19.973,356.878 19.973,358.482 19.897 C 360.087 19.821,358.880 19.758,355.800 19.758 C 352.720 19.757,351.407 19.819,352.882 19.896 M201.200 21.400 C 201.200 21.730,201.470 22.000,201.800 22.000 C 202.130 22.000,202.400 22.180,202.400 22.400 C 202.400 22.620,202.580 22.800,202.800 22.800 C 203.441 22.800,203.262 21.935,202.500 21.357 C 201.577 20.656,201.200 20.668,201.200 21.400 M59.455 22.200 C 59.315 22.565,59.455 22.800,59.813 22.800 C 60.136 22.800,60.400 22.530,60.400 22.200 C 60.400 21.870,60.239 21.600,60.043 21.600 C 59.846 21.600,59.582 21.870,59.455 22.200 M248.800 22.200 C 248.800 22.530,248.980 22.800,249.200 22.800 C 249.420 22.800,249.600 22.530,249.600 22.200 C 249.600 21.870,249.420 21.600,249.200 21.600 C 248.980 21.600,248.800 21.870,248.800 22.200 M72.252 22.900 C 71.903 24.204,71.939 24.400,72.533 24.400 C 72.859 24.400,73.067 23.933,73.067 23.200 C 73.067 21.788,72.596 21.615,72.252 22.900 M341.200 22.976 C 341.200 23.905,341.834 24.699,342.246 24.287 C 342.551 23.983,341.953 22.000,341.557 22.000 C 341.360 22.000,341.200 22.439,341.200 22.976 M394.715 23.200 C 394.618 23.860,394.687 24.400,394.869 24.400 C 395.051 24.400,395.213 24.265,395.230 24.100 C 395.246 23.935,395.335 23.395,395.427 22.900 C 395.519 22.405,395.437 22.000,395.243 22.000 C 395.049 22.000,394.812 22.540,394.715 23.200 M193.600 25.000 C 193.600 25.330,193.870 25.600,194.200 25.600 C 194.530 25.600,194.800 25.330,194.800 25.000 C 194.800 24.670,194.530 24.400,194.200 24.400 C 193.870 24.400,193.600 24.670,193.600 25.000 M332.998 24.803 C 332.861 25.024,333.038 25.317,333.392 25.452 C 334.158 25.746,334.585 25.422,334.216 24.827 C 333.884 24.289,333.322 24.278,332.998 24.803 M201.417 47.572 C 201.102 48.083,201.584 48.311,202.967 48.305 L 204.134 48.300 203.167 47.764 C 202.000 47.118,201.717 47.087,201.417 47.572 M197.600 48.200 C 197.600 48.530,197.758 48.800,197.951 48.800 C 198.144 48.800,198.526 48.530,198.800 48.200 C 199.216 47.699,199.158 47.600,198.449 47.600 C 197.961 47.600,197.600 47.855,197.600 48.200 M179.200 51.400 C 179.200 51.730,179.492 52.000,179.849 52.000 C 180.380 52.000,180.408 51.891,180.000 51.400 C 179.726 51.070,179.434 50.800,179.351 50.800 C 179.268 50.800,179.200 51.070,179.200 51.400 M181.200 51.200 C 181.200 51.420,181.459 51.600,181.776 51.600 C 182.093 51.600,182.464 51.420,182.600 51.200 C 182.736 50.980,182.477 50.800,182.024 50.800 C 181.571 50.800,181.200 50.980,181.200 51.200 M271.200 59.800 C 271.200 60.130,271.380 60.400,271.600 60.400 C 271.820 60.400,272.000 60.130,272.000 59.800 C 272.000 59.470,271.820 59.200,271.600 59.200 C 271.380 59.200,271.200 59.470,271.200 59.800 M223.026 60.358 C 222.904 60.555,223.056 60.813,223.363 60.931 C 223.950 61.156,224.400 60.896,224.400 60.333 C 224.400 59.887,223.305 59.906,223.026 60.358 M209.692 64.075 C 209.939 64.817,210.800 64.940,210.800 64.233 C 210.800 63.885,210.515 63.600,210.167 63.600 C 209.818 63.600,209.605 63.814,209.692 64.075 M264.400 64.013 C 264.400 64.273,264.658 64.386,264.974 64.265 C 265.290 64.144,265.636 64.219,265.744 64.432 C 265.852 64.646,265.894 64.591,265.837 64.310 C 265.705 63.656,264.400 63.387,264.400 64.013 M269.300 65.895 C 268.601 66.135,268.674 66.800,269.400 66.800 C 269.730 66.800,270.000 67.010,270.000 67.267 C 270.000 67.523,270.094 67.639,270.209 67.525 C 270.595 67.138,269.805 65.722,269.300 65.895 M195.880 66.253 C 195.334 66.800,195.611 67.254,196.416 67.128 C 196.865 67.058,197.234 66.820,197.237 66.600 C 197.243 66.113,196.269 65.864,195.880 66.253 M176.000 71.921 C 176.000 72.536,176.177 72.707,176.634 72.532 C 176.982 72.398,177.117 72.177,176.934 72.040 C 176.750 71.903,176.465 71.628,176.300 71.429 C 176.135 71.230,176.000 71.451,176.000 71.921 M100.678 73.056 C 100.358 73.375,100.719 74.000,101.224 74.000 C 101.431 74.000,101.600 73.730,101.600 73.400 C 101.600 72.781,101.128 72.605,100.678 73.056 M195.878 73.056 C 195.737 73.196,195.713 73.459,195.824 73.638 C 196.073 74.042,197.200 73.648,197.200 73.157 C 197.200 72.747,196.259 72.675,195.878 73.056 M78.000 74.567 C 78.000 74.915,78.285 75.200,78.633 75.200 C 79.340 75.200,79.217 74.339,78.475 74.092 C 78.214 74.005,78.000 74.218,78.000 74.567 M81.257 77.956 C 80.928 78.165,80.871 78.396,81.112 78.546 C 81.331 78.681,81.732 78.523,82.004 78.196 C 82.543 77.545,82.120 77.409,81.257 77.956 M97.884 86.000 C 97.999 86.440,98.252 86.800,98.447 86.800 C 98.865 86.800,98.879 86.672,98.557 85.833 C 98.205 84.914,97.637 85.055,97.884 86.000 M100.267 85.867 C 99.806 86.327,99.975 86.800,100.600 86.800 C 100.930 86.800,101.200 86.530,101.200 86.200 C 101.200 85.575,100.727 85.406,100.267 85.867 M264.000 93.449 C 264.000 93.980,264.109 94.008,264.600 93.600 C 264.930 93.326,265.200 93.034,265.200 92.951 C 265.200 92.868,264.930 92.800,264.600 92.800 C 264.270 92.800,264.000 93.092,264.000 93.449 M199.060 94.987 C 198.778 95.722,199.528 96.232,200.080 95.680 C 200.507 95.253,200.200 94.400,199.619 94.400 C 199.436 94.400,199.184 94.664,199.060 94.987 M198.487 96.862 C 198.695 97.485,199.590 97.594,199.621 97.000 C 199.633 96.780,199.342 96.538,198.975 96.462 C 198.558 96.375,198.375 96.525,198.487 96.862 M120.217 105.172 C 119.921 105.651,120.674 106.125,121.207 105.796 C 121.654 105.519,121.360 104.800,120.800 104.800 C 120.606 104.800,120.344 104.968,120.217 105.172 M127.000 106.000 C 127.136 106.220,127.586 106.400,128.000 106.400 C 128.414 106.400,128.864 106.220,129.000 106.000 C 129.145 105.766,128.730 105.600,128.000 105.600 C 127.270 105.600,126.855 105.766,127.000 106.000 M261.600 106.200 C 261.600 106.530,261.870 106.800,262.200 106.800 C 262.530 106.800,262.800 106.530,262.800 106.200 C 262.800 105.870,262.530 105.600,262.200 105.600 C 261.870 105.600,261.600 105.870,261.600 106.200 " stroke="none" fill="#ffffff" fill-rule="evenodd"></path><path id="path2" d="M157.056 5.478 C 156.672 5.861,156.760 18.917,157.150 19.534 C 157.801 20.559,158.000 18.835,158.000 12.191 C 158.000 6.241,157.789 4.744,157.056 5.478 M157.498 15.900 C 157.425 17.825,157.365 16.250,157.365 12.400 C 157.365 8.550,157.425 6.975,157.498 8.900 C 157.571 10.825,157.571 13.975,157.498 15.900 M338.400 6.176 C 338.400 6.493,338.580 6.864,338.800 7.000 C 339.020 7.136,339.200 6.877,339.200 6.424 C 339.200 5.971,339.020 5.600,338.800 5.600 C 338.580 5.600,338.400 5.859,338.400 6.176 M26.806 7.100 C 26.824 7.977,27.588 8.559,27.594 7.700 C 27.597 7.205,27.420 6.800,27.200 6.800 C 26.980 6.800,26.803 6.935,26.806 7.100 M60.800 7.624 C 60.800 8.077,60.980 8.336,61.200 8.200 C 61.420 8.064,61.600 7.693,61.600 7.376 C 61.600 7.059,61.420 6.800,61.200 6.800 C 60.980 6.800,60.800 7.171,60.800 7.624 M241.600 7.200 C 241.600 7.420,241.870 7.600,242.200 7.600 C 242.530 7.600,242.800 7.420,242.800 7.200 C 242.800 6.980,242.530 6.800,242.200 6.800 C 241.870 6.800,241.600 6.980,241.600 7.200 M321.701 9.800 C 321.705 10.680,321.787 10.993,321.883 10.495 C 321.979 9.998,321.975 9.278,321.875 8.895 C 321.775 8.513,321.696 8.920,321.701 9.800 M41.067 9.067 C 40.459 9.674,40.771 18.800,41.400 18.800 C 41.901 18.800,42.000 17.978,42.000 13.800 C 42.000 9.227,41.820 8.314,41.067 9.067 M54.155 13.800 C 54.156 16.660,54.220 17.778,54.297 16.283 C 54.374 14.789,54.374 12.449,54.296 11.083 C 54.218 9.718,54.155 10.940,54.155 13.800 M337.200 12.600 C 336.792 13.091,336.820 13.200,337.351 13.200 C 337.708 13.200,338.000 12.930,338.000 12.600 C 338.000 12.270,337.932 12.000,337.849 12.000 C 337.766 12.000,337.474 12.270,337.200 12.600 M241.206 15.433 C 241.209 15.855,241.395 16.470,241.618 16.800 C 241.915 17.238,241.952 17.076,241.756 16.200 C 241.427 14.729,241.198 14.410,241.206 15.433 M218.400 17.800 C 218.400 18.570,218.580 19.200,218.800 19.200 C 219.020 19.200,219.200 18.570,219.200 17.800 C 219.200 17.030,219.020 16.400,218.800 16.400 C 218.580 16.400,218.400 17.030,218.400 17.800 M60.800 20.200 C 60.800 20.530,60.980 20.800,61.200 20.800 C 61.420 20.800,61.600 20.530,61.600 20.200 C 61.600 19.870,61.420 19.600,61.200 19.600 C 60.980 19.600,60.800 19.870,60.800 20.200 M218.803 21.594 C 218.333 21.888,218.310 22.070,218.697 22.457 C 219.279 23.039,219.725 22.712,219.535 21.842 C 219.439 21.400,219.228 21.328,218.803 21.594 M110.633 24.347 C 109.991 24.486,109.391 24.825,109.300 25.100 C 109.091 25.728,109.690 25.750,110.303 25.137 C 110.654 24.786,110.910 24.794,111.360 25.167 C 111.855 25.578,111.944 25.521,111.892 24.830 C 111.858 24.374,111.823 24.021,111.815 24.047 C 111.807 24.073,111.275 24.208,110.633 24.347 M89.100 24.690 C 87.410 24.941,87.796 25.600,89.633 25.600 C 90.716 25.600,91.213 25.440,91.108 25.125 C 90.918 24.554,90.549 24.474,89.100 24.690 M129.505 24.683 C 130.002 24.779,130.722 24.775,131.105 24.675 C 131.487 24.575,131.080 24.496,130.200 24.501 C 129.320 24.505,129.007 24.587,129.505 24.683 M147.900 24.700 C 147.045 24.894,146.967 25.600,147.800 25.600 C 148.130 25.600,148.403 25.375,148.406 25.100 C 148.410 24.767,148.542 24.800,148.800 25.200 C 149.033 25.561,149.190 25.610,149.194 25.324 C 149.202 24.708,148.774 24.501,147.900 24.700 M223.867 24.667 C 223.720 24.813,223.603 25.128,223.606 25.367 C 223.610 25.648,223.716 25.636,223.910 25.333 C 224.073 25.075,224.835 24.789,225.603 24.697 L 227.000 24.528 225.567 24.464 C 224.778 24.429,224.013 24.520,223.867 24.667 M313.600 25.000 C 313.600 25.330,313.780 25.600,314.000 25.600 C 314.220 25.600,314.400 25.330,314.400 25.000 C 314.400 24.670,314.220 24.400,314.000 24.400 C 313.780 24.400,313.600 24.670,313.600 25.000 M342.857 24.756 C 342.528 24.965,342.471 25.196,342.712 25.346 C 342.931 25.481,343.332 25.323,343.604 24.996 C 344.143 24.345,343.720 24.209,342.857 24.756 M35.000 25.200 C 35.136 25.420,35.867 25.600,36.624 25.600 C 37.381 25.600,38.000 25.420,38.000 25.200 C 38.000 24.980,37.269 24.800,36.376 24.800 C 35.396 24.800,34.851 24.958,35.000 25.200 M71.000 25.200 C 71.136 25.420,71.507 25.600,71.824 25.600 C 72.141 25.600,72.400 25.420,72.400 25.200 C 72.400 24.980,72.029 24.800,71.576 24.800 C 71.123 24.800,70.864 24.980,71.000 25.200 M220.000 45.800 C 219.584 46.301,219.642 46.400,220.351 46.400 C 220.839 46.400,221.200 46.145,221.200 45.800 C 221.200 45.470,221.042 45.200,220.849 45.200 C 220.656 45.200,220.274 45.470,220.000 45.800 M244.433 47.744 C 244.911 48.156,246.800 48.366,246.800 48.008 C 246.800 47.783,246.230 47.600,245.533 47.600 C 244.837 47.600,244.342 47.665,244.433 47.744 M194.400 48.400 C 194.400 48.620,194.670 48.800,195.000 48.800 C 195.330 48.800,195.600 48.620,195.600 48.400 C 195.600 48.180,195.330 48.000,195.000 48.000 C 194.670 48.000,194.400 48.180,194.400 48.400 M252.179 60.434 C 251.743 61.139,252.619 61.741,253.425 61.290 C 254.078 60.925,254.068 60.865,253.288 60.447 C 252.685 60.124,252.373 60.120,252.179 60.434 M141.800 61.600 C 141.664 61.820,141.923 62.000,142.376 62.000 C 142.829 62.000,143.200 61.820,143.200 61.600 C 143.200 61.380,142.941 61.200,142.624 61.200 C 142.307 61.200,141.936 61.380,141.800 61.600 M75.478 69.456 C 75.179 69.755,75.506 70.400,75.957 70.400 C 76.127 70.400,76.267 70.130,76.267 69.800 C 76.267 69.173,75.914 69.019,75.478 69.456 M114.678 70.656 C 114.379 70.955,114.706 71.600,115.157 71.600 C 115.327 71.600,115.467 71.330,115.467 71.000 C 115.467 70.373,115.114 70.219,114.678 70.656 M175.078 71.856 C 174.758 72.175,175.119 72.800,175.624 72.800 C 175.831 72.800,176.000 72.530,176.000 72.200 C 176.000 71.581,175.528 71.405,175.078 71.856 M101.486 73.593 C 101.310 74.268,101.392 74.325,102.039 73.979 C 102.925 73.505,103.049 72.800,102.247 72.800 C 101.942 72.800,101.600 73.157,101.486 73.593 M233.600 80.400 C 233.600 80.620,234.050 80.800,234.600 80.800 C 235.150 80.800,235.600 80.620,235.600 80.400 C 235.600 80.180,235.150 80.000,234.600 80.000 C 234.050 80.000,233.600 80.180,233.600 80.400 M98.474 85.802 C 98.725 86.353,99.007 86.726,99.101 86.632 C 99.384 86.349,98.775 84.800,98.382 84.800 C 98.181 84.800,98.223 85.251,98.474 85.802 M263.400 86.400 C 263.264 86.620,263.534 86.800,264.000 86.800 C 264.466 86.800,264.736 86.620,264.600 86.400 C 264.464 86.180,264.194 86.000,264.000 86.000 C 263.806 86.000,263.536 86.180,263.400 86.400 M206.400 88.786 C 206.400 88.998,206.763 89.366,207.206 89.603 C 207.825 89.934,207.987 89.915,207.906 89.517 C 207.721 88.616,206.400 87.974,206.400 88.786 M197.867 91.467 C 197.381 91.953,197.590 92.379,198.200 92.145 C 198.530 92.018,198.800 91.754,198.800 91.557 C 198.800 91.138,198.249 91.084,197.867 91.467 M92.800 95.033 C 92.800 95.740,93.661 95.617,93.908 94.875 C 93.995 94.614,93.782 94.400,93.433 94.400 C 93.085 94.400,92.800 94.685,92.800 95.033 M189.400 94.800 C 189.260 95.027,189.596 95.200,190.176 95.200 C 190.739 95.200,191.200 95.020,191.200 94.800 C 191.200 94.580,190.851 94.400,190.424 94.400 C 189.997 94.400,189.536 94.580,189.400 94.800 M96.400 97.600 C 96.400 97.820,96.670 98.000,97.000 98.000 C 97.330 98.000,97.600 97.820,97.600 97.600 C 97.600 97.380,97.330 97.200,97.000 97.200 C 96.670 97.200,96.400 97.380,96.400 97.600 M121.277 105.232 C 121.349 105.566,121.113 105.777,120.704 105.745 C 120.322 105.715,120.107 105.850,120.228 106.045 C 120.512 106.505,121.888 106.505,122.172 106.045 C 122.293 105.850,122.113 105.460,121.773 105.178 C 121.264 104.755,121.176 104.765,121.277 105.232 " stroke="none" fill="#ffff00" fill-rule="evenodd"></path><path id="path3" d="M1.035 1.074 L -0.038 2.147 0.081 12.051 L 0.200 21.956 1.191 22.878 C 3.754 25.264,25.600 24.041,25.600 21.511 C 25.600 21.120,25.780 20.800,26.000 20.800 C 26.230 20.800,26.400 19.566,26.400 17.898 C 26.400 14.531,26.091 14.247,21.900 13.758 L 19.600 13.490 19.600 15.945 L 19.600 18.400 13.000 18.400 L 6.400 18.400 6.400 11.600 L 6.400 4.800 13.000 4.800 L 19.600 4.800 19.600 7.039 L 19.600 9.277 21.500 9.060 C 22.545 8.940,24.075 8.723,24.900 8.578 L 26.400 8.312 26.400 6.031 C 26.400 0.184,26.005 0.012,12.555 0.005 L 2.109 0.000 1.035 1.074 M222.100 0.404 C 221.605 0.608,221.200 1.035,221.200 1.354 C 221.200 1.673,221.003 1.999,220.763 2.079 C 220.465 2.178,220.320 5.216,220.308 11.682 C 220.282 25.002,219.078 23.987,234.906 23.995 L 246.012 24.000 247.476 22.658 L 248.940 21.317 248.970 15.358 L 249.000 9.400 241.400 9.400 L 233.800 9.400 233.800 12.000 L 233.800 14.600 238.300 14.713 L 242.800 14.826 242.800 16.613 L 242.800 18.400 234.600 18.400 L 226.400 18.400 226.400 11.600 L 226.400 4.800 234.600 4.800 L 242.800 4.800 242.800 6.200 C 242.800 7.489,242.895 7.600,244.000 7.600 C 244.660 7.600,245.200 7.443,245.200 7.252 C 245.200 7.061,246.019 6.812,247.020 6.699 C 248.021 6.586,248.939 6.394,249.061 6.273 C 249.500 5.833,248.735 2.174,247.999 1.198 L 247.247 0.200 235.123 0.117 C 228.385 0.070,222.600 0.198,222.100 0.404 M36.804 3.944 C 34.365 4.654,33.940 6.252,34.076 14.194 C 34.256 24.640,33.404 23.987,46.850 23.995 C 60.959 24.003,60.000 24.754,60.000 13.697 L 60.000 6.117 58.927 4.958 L 57.854 3.800 47.827 3.727 C 42.312 3.688,37.352 3.785,36.804 3.944 M67.200 13.800 L 67.200 24.000 69.600 24.000 C 71.243 24.000,72.006 23.842,72.019 23.500 C 72.029 23.225,72.023 20.300,72.005 17.000 C 71.973 11.406,72.014 11.061,72.608 11.900 C 72.959 12.395,73.516 12.800,73.846 12.800 C 74.177 12.800,74.336 12.980,74.200 13.200 C 74.064 13.420,74.107 13.600,74.295 13.600 C 74.652 13.600,76.015 14.558,77.162 15.614 C 77.528 15.952,78.542 16.761,79.414 17.412 C 80.286 18.063,81.144 18.821,81.320 19.098 C 81.496 19.374,81.892 19.600,82.200 19.600 C 82.508 19.600,82.904 19.835,83.080 20.122 C 83.256 20.409,84.120 21.174,85.000 21.822 C 85.880 22.470,86.785 23.236,87.012 23.524 C 87.286 23.872,88.157 24.006,89.612 23.924 L 91.800 23.800 91.800 13.800 L 91.800 3.800 89.312 3.681 C 86.306 3.538,86.437 3.243,86.298 10.500 L 86.200 15.599 85.000 14.617 C 84.340 14.076,83.440 13.364,83.000 13.034 C 82.560 12.704,81.634 11.976,80.942 11.417 C 80.250 10.858,79.530 10.392,79.342 10.383 C 79.154 10.374,78.558 9.834,78.019 9.183 C 77.479 8.532,76.849 7.997,76.619 7.993 C 76.388 7.989,75.776 7.539,75.258 6.993 C 74.740 6.447,74.161 6.000,73.972 6.000 C 73.782 6.000,73.075 5.460,72.400 4.800 C 71.369 3.793,70.854 3.600,69.186 3.600 L 67.200 3.600 67.200 13.800 M96.880 4.080 C 96.150 4.810,96.264 7.862,97.033 8.157 C 97.381 8.291,99.541 8.400,101.833 8.400 L 106.000 8.400 106.000 16.200 L 106.000 24.000 109.016 24.000 L 112.033 24.000 111.916 16.200 L 111.800 8.399 116.257 8.400 C 121.102 8.400,121.200 8.352,121.200 6.000 C 121.200 3.476,121.831 3.600,109.037 3.600 C 100.488 3.600,97.231 3.729,96.880 4.080 M128.262 3.874 C 126.968 4.224,126.000 5.343,126.000 6.489 C 126.000 7.100,125.820 7.600,125.600 7.600 C 125.350 7.600,125.200 10.000,125.200 14.000 C 125.200 18.000,125.350 20.400,125.600 20.400 C 125.820 20.400,126.000 20.837,126.000 21.371 C 126.000 23.851,127.048 24.059,138.850 23.923 L 149.534 23.800 150.367 22.839 C 151.151 21.935,151.200 21.408,151.200 13.959 L 151.200 6.041 150.162 4.921 L 149.124 3.800 139.062 3.737 C 133.528 3.702,128.668 3.764,128.262 3.874 M158.400 12.629 C 158.400 19.867,158.512 21.769,158.964 22.221 C 159.275 22.532,159.604 23.014,159.697 23.293 C 160.038 24.318,179.208 24.224,180.521 23.190 C 181.115 22.724,181.600 22.085,181.600 21.771 C 181.600 21.457,181.784 21.200,182.008 21.200 C 182.276 21.200,182.379 18.215,182.308 12.500 L 182.200 3.800 179.300 3.682 L 176.400 3.565 176.400 11.382 L 176.400 19.200 170.200 19.200 L 164.000 19.200 164.000 11.400 L 164.000 3.600 161.200 3.600 L 158.400 3.600 158.400 12.629 M189.600 13.800 L 189.600 24.000 192.600 24.000 L 195.600 24.000 195.600 20.400 L 195.600 16.800 197.359 16.800 C 199.102 16.800,203.200 19.903,203.200 21.222 C 203.200 21.456,203.361 21.548,203.558 21.426 C 203.755 21.304,204.019 21.474,204.146 21.802 C 204.272 22.131,204.611 22.400,204.899 22.400 C 205.187 22.400,205.730 22.760,206.107 23.200 C 206.703 23.896,207.287 24.000,210.596 24.000 C 214.979 24.000,215.389 23.594,212.807 21.805 C 211.931 21.198,211.329 20.515,211.469 20.289 C 211.609 20.062,211.536 19.992,211.307 20.134 C 211.078 20.275,210.668 20.123,210.396 19.796 C 210.124 19.468,209.753 19.200,209.572 19.200 C 209.207 19.200,207.200 17.428,207.200 17.106 C 207.200 16.995,208.020 16.812,209.022 16.699 C 211.698 16.397,211.972 15.822,211.987 10.474 C 212.007 3.416,212.352 3.600,199.140 3.600 L 189.600 3.600 189.600 13.800 M257.883 3.850 C 257.727 4.006,257.600 8.603,257.600 14.067 L 257.600 24.000 268.000 24.000 L 278.400 24.000 278.400 21.600 L 278.400 19.200 271.009 19.200 L 263.617 19.200 263.509 11.500 L 263.400 3.800 260.783 3.684 C 259.344 3.620,258.039 3.695,257.883 3.850 M284.908 3.881 C 282.670 4.314,282.400 5.408,282.400 14.054 C 282.400 24.809,281.069 23.800,295.255 23.800 L 306.310 23.800 307.142 22.800 C 308.090 21.659,308.496 6.000,307.576 6.000 C 307.343 6.000,307.265 5.819,307.402 5.597 C 307.539 5.376,307.324 5.071,306.925 4.920 C 306.526 4.768,305.962 4.410,305.671 4.122 C 305.161 3.618,287.342 3.411,284.908 3.881 M315.200 13.806 L 315.200 24.050 325.300 23.925 C 336.222 23.790,337.600 23.477,337.600 21.128 C 337.600 20.728,337.780 20.400,338.000 20.400 C 338.220 20.400,338.400 20.119,338.400 19.776 C 338.400 19.433,338.220 19.264,338.000 19.400 C 337.767 19.544,337.600 19.137,337.600 18.424 C 337.600 17.739,337.811 17.200,338.080 17.200 C 338.453 17.200,338.453 17.093,338.080 16.720 C 337.816 16.456,337.600 15.975,337.600 15.651 C 337.600 15.328,337.302 14.734,336.938 14.331 C 336.322 13.651,336.322 13.549,336.938 12.869 C 338.071 11.616,337.775 4.800,336.587 4.800 C 336.301 4.800,335.992 4.575,335.900 4.300 C 335.775 3.922,333.239 3.771,325.467 3.681 L 315.200 3.562 315.200 13.806 M352.917 4.500 C 352.657 4.995,352.162 5.985,351.817 6.700 C 351.472 7.415,351.051 8.000,350.882 8.000 C 350.714 8.000,350.360 8.495,350.096 9.100 C 349.832 9.705,349.256 10.785,348.816 11.500 C 348.376 12.215,348.148 12.805,348.308 12.812 C 348.469 12.819,348.285 13.008,347.900 13.232 C 347.515 13.456,347.200 13.873,347.200 14.159 C 347.200 14.444,346.840 15.093,346.400 15.600 C 345.960 16.107,345.600 16.765,345.600 17.061 C 345.600 17.358,345.442 17.600,345.249 17.600 C 345.055 17.600,344.660 18.185,344.371 18.900 C 344.082 19.615,343.741 20.290,343.613 20.400 C 341.260 22.429,341.863 24.000,344.997 24.000 C 347.683 24.000,348.247 23.605,348.996 21.200 C 349.469 19.684,349.774 19.613,355.811 19.606 C 361.840 19.600,362.284 19.745,362.986 21.955 C 363.673 24.119,370.400 25.238,370.400 23.187 C 370.400 22.741,370.130 22.271,369.800 22.145 C 369.470 22.018,369.200 21.677,369.200 21.386 C 369.200 21.095,368.943 20.601,368.630 20.287 C 368.316 19.973,367.776 19.105,367.431 18.358 C 367.085 17.611,366.438 16.460,365.994 15.800 C 365.549 15.140,364.969 14.105,364.705 13.500 C 364.441 12.895,364.086 12.400,363.918 12.400 C 363.749 12.400,363.342 11.815,363.013 11.100 C 362.380 9.721,361.553 8.332,361.168 8.000 C 361.040 7.890,360.681 7.215,360.370 6.500 C 360.059 5.785,359.690 5.200,359.549 5.200 C 359.408 5.200,359.199 4.840,359.084 4.400 C 358.751 3.126,353.595 3.210,352.917 4.500 M374.059 4.129 C 373.610 4.670,373.440 22.318,373.873 23.446 C 374.047 23.898,375.992 24.000,384.463 24.000 L 394.840 24.000 394.720 21.700 L 394.600 19.400 387.300 19.291 L 380.000 19.182 380.000 12.024 C 380.000 8.087,379.891 4.581,379.757 4.233 C 379.441 3.409,374.727 3.324,374.059 4.129 M393.850 4.432 C 393.268 4.890,392.895 5.430,393.020 5.632 C 393.145 5.834,393.057 6.000,392.824 6.000 C 392.588 6.000,392.400 6.800,392.400 7.800 C 392.400 8.790,392.580 9.600,392.800 9.600 C 393.020 9.600,393.200 9.870,393.200 10.200 C 393.200 10.530,393.448 10.800,393.751 10.800 C 394.054 10.800,394.526 11.070,394.800 11.400 C 395.442 12.174,397.358 12.174,398.000 11.400 C 398.274 11.070,398.725 10.800,399.002 10.800 C 399.641 10.800,399.988 9.519,399.995 7.129 C 400.004 3.936,396.459 2.380,393.850 4.432 M394.283 8.495 C 394.187 8.993,394.105 8.680,394.101 7.800 C 394.096 6.920,394.175 6.513,394.275 6.895 C 394.375 7.278,394.379 7.998,394.283 8.495 M206.426 8.414 C 206.985 8.713,207.200 9.255,207.200 10.367 C 207.200 12.308,206.939 12.387,200.500 12.395 L 195.600 12.400 195.600 10.200 L 195.600 8.000 200.626 8.000 C 203.391 8.000,206.001 8.186,206.426 8.414 M331.932 8.350 C 332.234 8.541,332.407 9.186,332.332 9.843 L 332.200 11.000 326.500 11.111 L 320.800 11.222 320.800 9.611 L 320.800 8.000 326.100 8.006 C 329.015 8.009,331.639 8.164,331.932 8.350 M54.400 13.800 L 54.400 19.200 47.200 19.200 L 40.000 19.200 40.000 13.800 L 40.000 8.400 47.200 8.400 L 54.400 8.400 54.400 13.800 M145.600 13.800 L 145.600 19.200 138.400 19.200 L 131.200 19.200 131.200 13.800 L 131.200 8.400 138.400 8.400 L 145.600 8.400 145.600 13.800 M302.400 13.800 L 302.400 19.200 295.200 19.200 L 288.000 19.200 288.000 13.800 L 288.000 8.400 295.200 8.400 L 302.400 8.400 302.400 13.800 M357.978 12.800 C 358.109 12.910,358.434 13.495,358.700 14.100 L 359.183 15.200 355.991 15.200 C 354.236 15.200,352.800 15.118,352.800 15.019 C 352.800 14.733,353.761 12.622,353.992 12.400 C 354.106 12.290,354.545 11.523,354.966 10.695 L 355.731 9.190 356.736 10.895 C 357.288 11.833,357.848 12.690,357.978 12.800 M332.400 17.353 C 332.400 19.540,332.258 19.587,325.700 19.595 L 320.800 19.600 320.800 17.600 L 320.800 15.600 326.600 15.600 L 332.400 15.600 332.400 17.353 M211.800 47.055 C 210.480 47.142,209.040 47.376,208.600 47.575 C 208.160 47.774,205.282 48.148,202.203 48.406 C 199.125 48.664,196.335 49.016,196.003 49.188 C 195.672 49.360,194.140 49.626,192.600 49.779 C 191.060 49.933,188.969 50.298,187.954 50.591 C 186.939 50.885,184.914 51.253,183.454 51.409 C 181.994 51.565,180.800 51.818,180.800 51.970 C 180.800 52.122,179.180 52.476,177.200 52.757 C 175.220 53.037,173.600 53.407,173.600 53.579 C 173.600 53.751,172.763 54.006,171.740 54.146 C 170.718 54.286,169.683 54.557,169.440 54.748 C 169.198 54.939,167.785 55.319,166.300 55.593 C 164.815 55.866,163.600 56.250,163.600 56.445 C 163.600 56.640,163.144 56.800,162.587 56.800 C 162.030 56.800,160.523 57.154,159.238 57.587 C 157.953 58.020,156.159 58.493,155.251 58.638 C 154.343 58.783,153.600 59.031,153.600 59.187 C 153.600 59.344,152.610 59.694,151.400 59.965 C 150.190 60.236,149.200 60.609,149.200 60.794 C 149.200 60.978,148.480 61.251,147.600 61.400 C 146.720 61.549,146.000 61.801,146.000 61.962 C 146.000 62.122,144.830 62.486,143.400 62.770 C 141.970 63.054,140.800 63.423,140.800 63.589 C 140.800 63.755,139.720 64.120,138.400 64.400 C 137.080 64.680,136.000 65.044,136.000 65.209 C 136.000 65.374,135.190 65.631,134.200 65.779 C 133.210 65.928,132.400 66.185,132.400 66.351 C 132.400 66.517,131.230 66.886,129.800 67.170 C 128.370 67.454,127.200 67.827,127.200 67.998 C 127.200 68.169,126.394 68.430,125.409 68.578 C 124.424 68.725,123.521 69.004,123.403 69.196 C 123.284 69.388,122.199 69.767,120.993 70.036 C 119.787 70.306,118.800 70.662,118.800 70.828 C 118.800 70.993,117.541 71.340,116.001 71.600 C 114.462 71.859,113.115 72.215,113.007 72.389 C 112.899 72.564,111.818 72.830,110.605 72.982 C 109.392 73.134,108.400 73.401,108.400 73.576 C 108.400 73.921,102.276 74.800,99.873 74.800 C 99.063 74.800,98.400 74.980,98.400 75.200 C 98.400 75.439,96.867 75.600,94.600 75.600 C 92.333 75.600,90.800 75.439,90.800 75.200 C 90.800 74.980,90.250 74.800,89.577 74.800 C 87.857 74.800,84.701 73.956,84.071 73.328 C 83.781 73.037,83.416 72.800,83.261 72.800 C 82.870 72.800,78.800 68.820,78.800 68.437 C 78.800 67.623,76.974 66.045,76.426 66.384 C 76.000 66.647,75.965 66.876,76.290 67.270 C 76.531 67.561,76.856 68.484,77.012 69.320 C 77.169 70.155,77.500 71.058,77.748 71.326 C 77.997 71.593,78.560 72.521,79.000 73.388 C 79.845 75.053,82.861 78.400,83.515 78.400 C 83.728 78.400,84.129 78.674,84.407 79.008 C 85.184 79.944,91.991 83.092,93.900 83.398 C 94.835 83.548,95.600 83.799,95.600 83.956 C 95.600 84.113,96.455 84.442,97.500 84.686 C 98.545 84.930,100.133 85.319,101.030 85.551 C 105.504 86.708,117.629 87.539,120.000 86.852 C 120.770 86.628,123.071 86.228,125.113 85.963 C 127.156 85.697,128.914 85.340,129.020 85.168 C 129.126 84.996,130.200 84.733,131.406 84.582 C 132.613 84.431,133.600 84.149,133.600 83.954 C 133.600 83.759,134.060 83.600,134.623 83.600 C 135.789 83.600,139.008 82.902,140.200 82.390 C 140.640 82.201,141.630 81.924,142.400 81.775 C 143.170 81.626,144.250 81.279,144.800 81.005 C 145.350 80.731,146.520 80.377,147.400 80.218 C 148.280 80.059,149.180 79.785,149.400 79.609 C 149.620 79.433,150.835 79.060,152.100 78.781 C 153.365 78.501,154.400 78.145,154.400 77.988 C 154.400 77.831,155.300 77.584,156.400 77.438 C 157.500 77.292,158.400 77.022,158.400 76.838 C 158.400 76.654,159.525 76.284,160.900 76.014 C 162.275 75.745,163.580 75.388,163.800 75.220 C 164.020 75.053,165.098 74.696,166.195 74.428 C 167.292 74.160,168.372 73.797,168.595 73.621 C 168.818 73.445,169.855 73.177,170.900 73.026 C 171.945 72.875,172.800 72.607,172.800 72.430 C 172.800 72.254,173.925 71.878,175.300 71.595 C 176.675 71.312,177.980 70.943,178.200 70.776 C 178.420 70.609,179.320 70.342,180.200 70.184 C 181.080 70.025,181.980 69.759,182.200 69.591 C 182.420 69.424,183.680 69.066,185.000 68.797 C 186.320 68.527,187.490 68.188,187.600 68.043 C 187.787 67.796,191.067 66.997,196.526 65.867 C 197.806 65.603,198.750 65.283,198.624 65.158 C 198.499 65.032,199.927 64.691,201.798 64.400 C 203.669 64.109,205.200 63.741,205.200 63.582 C 205.200 63.422,206.235 63.168,207.500 63.016 C 208.765 62.864,210.520 62.504,211.400 62.215 C 212.280 61.927,213.990 61.558,215.200 61.397 C 216.410 61.235,217.491 60.960,217.603 60.785 C 218.305 59.684,247.137 58.240,250.400 59.142 C 251.170 59.355,253.240 59.713,255.000 59.936 C 256.760 60.159,258.740 60.624,259.400 60.969 C 260.060 61.313,260.875 61.596,261.211 61.598 C 261.547 61.599,262.177 61.847,262.611 62.149 C 263.045 62.451,263.985 62.825,264.700 62.981 C 265.415 63.136,266.000 63.415,266.000 63.601 C 266.000 63.786,266.665 64.157,267.477 64.426 C 268.290 64.694,269.145 65.071,269.377 65.264 C 271.322 66.879,271.757 67.200,271.995 67.200 C 272.886 67.200,279.600 74.592,279.600 75.573 C 279.600 75.808,279.758 76.000,279.951 76.000 C 280.145 76.000,280.540 76.585,280.829 77.300 C 281.118 78.015,281.455 78.690,281.577 78.800 C 281.925 79.112,283.507 82.488,283.827 83.600 C 284.267 85.130,285.648 86.215,286.108 85.392 C 286.318 85.017,286.311 84.563,286.089 84.279 C 285.883 84.016,285.496 82.653,285.228 81.251 C 284.773 78.872,283.734 76.058,283.141 75.600 C 282.999 75.490,282.681 74.649,282.434 73.731 C 282.188 72.813,281.854 72.003,281.693 71.931 C 281.532 71.859,280.881 71.035,280.246 70.100 C 279.611 69.165,278.936 68.400,278.746 68.400 C 278.556 68.400,278.400 68.146,278.400 67.835 C 278.400 67.267,270.902 59.600,270.346 59.600 C 270.183 59.600,269.458 59.060,268.736 58.400 C 268.013 57.740,267.214 57.200,266.960 57.200 C 266.706 57.200,266.282 56.939,266.017 56.620 C 265.752 56.302,264.875 55.826,264.068 55.562 C 263.261 55.299,262.510 54.967,262.400 54.823 C 262.095 54.425,257.225 52.400,256.574 52.400 C 256.258 52.400,256.000 52.253,256.000 52.073 C 256.000 51.730,251.198 50.175,248.800 49.741 C 248.030 49.601,247.212 49.342,246.983 49.164 C 246.754 48.986,244.864 48.624,242.783 48.361 C 240.702 48.097,238.884 47.703,238.742 47.486 C 238.483 47.087,216.600 46.737,211.800 47.055 M227.600 67.254 C 225.070 67.441,222.640 67.766,222.200 67.976 C 221.760 68.186,219.960 68.540,218.200 68.762 C 214.416 69.241,208.684 70.431,208.400 70.798 C 208.290 70.939,206.896 71.284,205.301 71.564 C 203.707 71.843,202.308 72.226,202.192 72.413 C 202.076 72.600,201.176 72.875,200.191 73.022 C 199.206 73.170,198.400 73.422,198.400 73.582 C 198.400 73.742,197.365 74.091,196.100 74.358 C 194.835 74.625,193.440 75.005,193.000 75.203 C 192.560 75.401,191.570 75.737,190.800 75.950 C 190.030 76.163,187.871 76.892,186.003 77.569 C 184.135 78.246,182.335 78.801,182.003 78.802 C 181.671 78.804,180.897 79.067,180.283 79.388 C 179.669 79.708,178.544 80.087,177.783 80.230 C 177.022 80.372,176.400 80.616,176.400 80.771 C 176.400 80.926,175.230 81.286,173.800 81.570 C 172.370 81.854,171.200 82.214,171.200 82.370 C 171.200 82.526,170.028 82.886,168.596 83.171 C 167.164 83.455,165.903 83.833,165.794 84.009 C 165.685 84.186,164.877 84.452,163.998 84.600 C 163.119 84.749,162.400 85.010,162.400 85.180 C 162.400 85.351,161.005 85.713,159.300 85.986 C 157.595 86.259,156.020 86.621,155.800 86.791 C 155.389 87.108,152.991 87.611,146.468 88.750 C 144.415 89.109,142.844 89.510,142.976 89.643 C 143.108 89.775,141.998 90.014,140.508 90.175 C 135.863 90.677,132.285 91.146,130.000 91.551 C 128.790 91.766,126.596 91.955,125.124 91.971 C 123.652 91.987,122.336 92.180,122.200 92.400 C 121.894 92.895,105.200 92.951,105.200 92.457 C 105.200 92.269,103.935 91.997,102.388 91.854 C 100.842 91.710,99.267 91.420,98.888 91.210 C 98.510 90.999,97.165 90.628,95.900 90.385 C 94.635 90.142,93.600 89.796,93.600 89.615 C 93.600 89.434,93.195 89.185,92.700 89.060 C 91.696 88.807,90.606 88.027,88.563 86.100 C 85.859 83.548,85.069 84.902,87.495 87.933 C 89.783 90.791,94.263 94.800,95.168 94.800 C 95.419 94.800,95.724 95.059,95.846 95.376 C 95.967 95.692,96.592 96.066,97.233 96.207 C 97.875 96.348,98.400 96.622,98.400 96.816 C 98.400 97.009,99.114 97.382,99.987 97.643 C 100.860 97.905,101.479 98.272,101.363 98.459 C 101.248 98.647,101.422 98.800,101.750 98.800 C 102.303 98.800,106.529 100.419,108.070 101.221 C 108.438 101.412,109.968 101.790,111.470 102.061 C 112.971 102.332,114.295 102.689,114.411 102.856 C 114.526 103.022,115.786 103.279,117.211 103.426 C 118.635 103.574,120.000 103.855,120.245 104.050 C 121.765 105.267,150.623 105.255,152.179 104.038 C 152.410 103.856,154.124 103.586,155.987 103.437 C 157.849 103.289,159.469 103.017,159.587 102.833 C 159.704 102.650,161.150 102.276,162.800 102.004 C 164.450 101.731,165.980 101.370,166.200 101.200 C 166.420 101.031,167.410 100.701,168.400 100.466 C 173.005 99.375,175.817 98.607,176.000 98.389 C 176.110 98.258,177.280 97.917,178.600 97.631 C 179.920 97.345,181.180 96.972,181.400 96.802 C 181.848 96.455,184.436 95.806,184.900 95.924 C 185.065 95.966,185.200 95.840,185.200 95.645 C 185.200 95.449,185.875 95.164,186.700 95.011 C 187.525 94.859,188.740 94.494,189.400 94.201 C 190.060 93.909,191.320 93.450,192.200 93.182 C 193.080 92.915,193.980 92.555,194.200 92.384 C 194.420 92.212,195.275 91.945,196.100 91.791 C 196.925 91.637,197.600 91.351,197.600 91.155 C 197.600 90.960,197.873 90.800,198.206 90.800 C 199.149 90.800,202.000 89.839,202.000 89.521 C 202.000 89.364,202.630 89.118,203.400 88.974 C 204.170 88.829,204.800 88.580,204.800 88.420 C 204.800 88.259,206.060 87.903,207.600 87.628 C 209.140 87.353,210.400 86.985,210.400 86.811 C 210.400 86.637,211.253 86.280,212.295 86.018 C 213.337 85.755,214.372 85.399,214.595 85.226 C 214.818 85.052,215.538 84.781,216.196 84.623 C 216.854 84.466,217.484 84.187,217.597 84.004 C 217.710 83.822,218.972 83.437,220.401 83.149 C 221.831 82.862,223.090 82.513,223.200 82.374 C 223.310 82.235,224.205 81.996,225.188 81.842 C 226.171 81.688,227.077 81.399,227.200 81.200 C 227.323 81.000,228.621 80.610,230.083 80.333 C 231.545 80.056,232.673 79.719,232.590 79.584 C 231.651 78.065,256.104 78.085,258.200 79.606 C 258.420 79.765,259.275 80.113,260.100 80.379 C 260.925 80.645,261.600 81.016,261.600 81.204 C 261.600 81.392,261.923 81.648,262.317 81.774 C 263.001 81.991,265.200 85.778,265.200 86.740 C 265.200 86.993,265.380 87.200,265.600 87.200 C 265.820 87.200,266.000 88.190,266.000 89.400 C 266.000 90.610,265.820 91.600,265.600 91.600 C 265.380 91.600,265.200 91.932,265.200 92.338 C 265.200 92.744,264.845 93.398,264.410 93.791 C 263.976 94.184,263.514 94.841,263.384 95.252 C 263.253 95.662,262.692 96.112,262.135 96.252 C 261.553 96.398,261.310 96.621,261.564 96.778 C 261.814 96.932,261.400 97.286,260.602 97.599 C 259.831 97.902,259.200 98.296,259.200 98.475 C 259.200 98.654,258.943 98.800,258.629 98.800 C 258.314 98.800,257.819 99.034,257.529 99.319 C 257.238 99.604,255.920 100.076,254.600 100.367 C 253.280 100.658,252.106 101.044,251.992 101.223 C 251.877 101.403,250.167 101.779,248.192 102.057 C 246.216 102.336,244.472 102.752,244.315 102.982 C 243.893 103.600,220.028 103.550,218.761 102.929 C 218.232 102.670,216.374 102.262,214.632 102.021 C 212.889 101.781,211.269 101.428,211.032 101.237 C 210.794 101.046,209.565 100.660,208.300 100.381 C 207.035 100.101,206.000 99.721,206.000 99.536 C 206.000 99.351,205.724 99.200,205.387 99.200 C 205.051 99.200,204.671 98.930,204.545 98.600 C 204.418 98.270,204.076 98.000,203.784 98.000 C 203.493 98.000,202.870 97.460,202.400 96.800 C 201.567 95.630,200.000 95.144,200.000 96.056 C 200.000 96.777,201.746 100.166,202.300 100.520 C 202.575 100.696,202.800 101.038,202.800 101.279 C 202.800 101.521,203.433 102.334,204.207 103.086 C 204.981 103.838,205.521 104.604,205.407 104.789 C 205.292 104.974,205.544 105.035,205.965 104.925 C 206.470 104.793,206.885 105.011,207.180 105.562 C 207.426 106.023,207.864 106.400,208.153 106.400 C 208.441 106.400,209.093 106.760,209.600 107.200 C 210.107 107.640,210.765 108.000,211.061 108.000 C 211.358 108.000,211.600 108.180,211.600 108.400 C 211.600 108.620,211.832 108.800,212.115 108.800 C 212.399 108.800,213.334 109.158,214.193 109.596 C 215.052 110.034,216.395 110.508,217.178 110.649 C 217.960 110.789,218.820 111.079,219.089 111.292 C 222.392 113.910,251.616 112.816,253.600 110.000 C 253.710 109.844,254.475 109.496,255.300 109.227 C 256.125 108.958,256.800 108.584,256.800 108.396 C 256.800 108.208,257.191 107.930,257.669 107.778 C 258.147 107.626,258.732 107.346,258.969 107.154 C 259.206 106.963,260.355 106.073,261.523 105.176 C 262.691 104.279,263.754 103.265,263.885 102.923 C 264.016 102.581,264.633 101.780,265.256 101.143 C 265.879 100.505,266.498 99.551,266.631 99.021 C 266.763 98.491,267.126 97.961,267.436 97.841 C 267.746 97.722,268.000 97.339,268.000 96.989 C 268.000 96.626,268.190 96.470,268.443 96.626 C 268.738 96.809,268.799 96.628,268.627 96.084 C 268.484 95.635,268.539 95.161,268.749 95.032 C 268.959 94.902,269.252 94.078,269.400 93.200 C 269.548 92.322,269.834 91.503,270.035 91.378 C 270.236 91.254,270.400 90.184,270.400 89.000 C 270.400 87.816,270.236 86.746,270.035 86.622 C 269.834 86.497,269.548 85.677,269.400 84.798 C 269.251 83.919,268.985 83.200,268.808 83.200 C 268.631 83.200,268.374 82.751,268.236 82.203 C 267.993 81.233,261.075 74.000,260.391 74.000 C 260.203 74.000,259.472 73.473,258.767 72.829 C 258.062 72.185,257.018 71.541,256.447 71.397 C 255.875 71.254,255.316 71.005,255.204 70.843 C 254.946 70.473,250.991 68.916,249.400 68.559 C 248.740 68.411,247.994 68.129,247.743 67.932 C 246.536 66.986,235.998 66.631,227.600 67.254 " stroke="none" fill="#0c217e" fill-rule="evenodd"></path><path id="path4" d="M308.157 14.000 C 308.157 16.970,308.220 18.185,308.297 16.700 C 308.374 15.215,308.374 12.785,308.297 11.300 C 308.220 9.815,308.157 11.030,308.157 14.000 " stroke="none" fill="#ff00ff" fill-rule="evenodd"></path></g></svg>