<svg id="svg" version="1.1" width="863" height="500" xmlns="http://www.w3.org/2000/svg" xmlns:xlink="http://www.w3.org/1999/xlink" style="display: block;"><g id="svgg"><path id="path0" d="M25.029 72.689 C 25.029 72.900,25.655 72.981,26.419 72.868 C 27.184 72.756,27.810 72.584,27.810 72.485 C 27.810 72.387,27.184 72.306,26.419 72.306 C 25.655 72.306,25.029 72.478,25.029 72.689 M32.097 72.638 C 32.798 72.744,33.946 72.744,34.647 72.638 C 35.348 72.532,34.774 72.445,33.372 72.445 C 31.970 72.445,31.396 72.532,32.097 72.638 M87.949 72.641 C 88.778 72.744,90.133 72.744,90.962 72.641 C 91.790 72.538,91.112 72.454,89.455 72.454 C 87.798 72.454,87.121 72.538,87.949 72.641 M375.557 72.639 C 376.261 72.745,377.304 72.742,377.874 72.632 C 378.444 72.522,377.868 72.435,376.593 72.438 C 375.319 72.442,374.852 72.532,375.557 72.639 M68.774 76.688 C 68.632 77.058,68.847 77.835,69.252 78.413 C 69.657 78.991,69.988 79.222,69.988 78.925 C 69.988 78.629,69.762 78.246,69.485 78.075 C 69.207 77.903,69.084 77.370,69.209 76.889 C 69.478 75.861,69.149 75.709,68.774 76.688 M252.343 87.138 C 252.343 93.129,252.409 95.579,252.490 92.584 C 252.571 89.589,252.571 84.687,252.490 81.692 C 252.409 78.696,252.343 81.147,252.343 87.138 M151.101 81.487 C 149.699 81.565,148.405 81.773,148.226 81.950 C 147.944 82.229,150.824 82.205,153.650 81.905 C 155.617 81.696,153.519 81.351,151.101 81.487 M370.628 81.943 C 370.503 82.144,371.116 82.226,371.991 82.124 C 372.865 82.021,373.581 81.857,373.581 81.757 C 373.581 81.408,370.852 81.580,370.628 81.943 M377.289 81.755 C 377.289 81.854,377.903 82.024,378.655 82.135 C 379.406 82.245,379.915 82.164,379.786 81.956 C 379.556 81.584,377.289 81.402,377.289 81.755 M351.219 89.224 C 351.097 89.861,351.177 90.382,351.397 90.382 C 351.616 90.382,351.796 89.861,351.796 89.224 C 351.796 88.586,351.716 88.065,351.618 88.065 C 351.521 88.065,351.341 88.586,351.219 89.224 M100.283 93.627 C 100.283 96.049,100.361 97.039,100.457 95.829 C 100.552 94.618,100.552 92.636,100.457 91.425 C 100.361 90.214,100.283 91.205,100.283 93.627 M51.195 124.450 C 51.195 134.137,51.257 138.166,51.332 133.402 C 51.407 128.639,51.407 120.714,51.332 115.789 C 51.257 110.865,51.195 114.762,51.195 124.450 M348.659 108.922 C 348.659 109.815,348.754 110.180,348.871 109.733 C 348.988 109.287,348.988 108.557,348.871 108.111 C 348.754 107.665,348.659 108.030,348.659 108.922 M332.846 133.743 C 332.817 134.265,332.585 134.944,332.331 135.251 C 332.077 135.558,332.201 135.520,332.607 135.167 C 333.013 134.813,333.245 134.135,333.123 133.658 C 332.922 132.878,332.895 132.886,332.846 133.743 M15.425 150.052 C 16.644 150.147,18.521 150.146,19.597 150.049 C 20.673 149.952,19.676 149.873,17.381 149.875 C 15.087 149.876,14.207 149.956,15.425 150.052 M25.830 150.045 C 26.653 150.147,28.113 150.149,29.074 150.049 C 30.036 149.948,29.363 149.864,27.578 149.862 C 25.794 149.860,25.007 149.942,25.830 150.045 M23.991 159.772 C 24.568 159.882,25.402 159.878,25.845 159.762 C 26.289 159.646,25.817 159.556,24.797 159.561 C 23.778 159.566,23.415 159.661,23.991 159.772 " stroke="none" fill="#000000" fill-rule="evenodd"></path><path id="path1" d="M26.651 72.759 C 25.886 72.959,24.282 73.148,23.086 73.178 C 21.891 73.208,20.793 73.425,20.648 73.661 C 20.502 73.896,19.760 74.225,18.998 74.393 C 18.236 74.560,17.613 74.866,17.613 75.072 C 17.613 75.278,16.883 75.584,15.991 75.752 C 15.098 75.919,14.368 76.255,14.368 76.498 C 14.368 76.742,14.003 76.957,13.557 76.977 C 13.073 76.999,12.979 77.108,13.326 77.248 C 14.279 77.632,13.980 78.418,12.999 78.106 C 11.805 77.727,9.598 79.164,9.953 80.089 C 10.232 80.817,9.001 82.503,8.190 82.503 C 7.931 82.503,8.208 81.981,8.806 81.344 C 9.405 80.707,9.725 80.185,9.517 80.185 C 9.079 80.185,6.489 82.812,6.489 83.255 C 6.489 83.419,6.124 83.892,5.678 84.307 C 4.907 85.025,4.283 85.989,3.244 88.065 C 2.990 88.575,2.565 89.418,2.302 89.938 C 2.038 90.458,1.937 91.069,2.078 91.296 C 2.218 91.523,2.121 91.840,1.862 92.000 C 1.602 92.160,1.390 92.991,1.390 93.847 C 1.390 94.703,1.207 95.473,0.983 95.558 C 0.469 95.753,0.056 101.970,0.557 101.970 C 0.761 101.970,0.927 103.326,0.927 104.983 C 0.927 106.640,0.771 107.995,0.579 107.994 C 0.131 107.993,0.431 114.568,0.907 115.180 C 1.105 115.435,1.407 116.747,1.579 118.095 C 1.869 120.373,2.636 122.747,3.259 123.291 C 3.405 123.418,3.888 124.305,4.333 125.261 C 4.778 126.217,5.327 126.999,5.553 126.999 C 5.778 126.999,6.100 127.432,6.268 127.961 C 6.436 128.490,6.672 128.824,6.792 128.704 C 6.913 128.583,7.804 129.285,8.772 130.263 C 10.646 132.156,13.490 133.951,14.614 133.951 C 14.989 133.951,15.295 134.160,15.295 134.415 C 15.295 134.670,15.984 134.878,16.825 134.878 C 17.666 134.878,18.571 135.094,18.835 135.359 C 19.113 135.636,21.938 135.863,25.532 135.895 C 32.160 135.954,33.440 135.695,37.926 133.382 L 40.395 132.110 40.166 135.696 C 39.886 140.080,39.430 142.683,38.883 143.021 C 38.656 143.161,38.470 143.647,38.470 144.101 C 38.470 145.523,33.846 149.247,32.080 149.247 C 31.618 149.247,31.022 149.465,30.756 149.731 C 30.211 150.276,14.096 150.123,11.878 149.551 C 10.788 149.270,10.596 149.338,10.821 149.923 C 10.989 150.362,10.838 150.637,10.429 150.637 C 10.027 150.637,9.868 150.361,10.029 149.942 C 10.209 149.474,10.008 149.247,9.412 149.247 C 8.926 149.247,8.283 149.001,7.983 148.702 C 7.109 147.828,5.718 149.454,5.418 151.699 C 5.275 152.772,5.016 154.119,4.842 154.693 C 4.606 155.474,4.715 155.736,5.276 155.736 C 5.688 155.736,6.025 155.938,6.025 156.185 C 6.025 156.432,5.713 156.514,5.330 156.367 C 4.381 156.003,4.453 156.822,5.446 157.697 C 7.163 159.208,22.620 160.602,29.432 159.861 C 31.727 159.611,33.965 159.402,34.406 159.396 C 34.847 159.390,35.328 159.190,35.476 158.951 C 35.623 158.712,36.253 158.517,36.876 158.517 C 37.498 158.517,38.007 158.358,38.007 158.163 C 38.007 157.812,38.452 157.527,41.056 156.209 C 44.298 154.568,49.131 148.787,49.131 146.551 C 49.131 146.249,49.340 146.002,49.594 146.002 C 49.849 146.002,50.058 145.168,50.058 144.148 C 50.058 143.129,50.267 142.294,50.521 142.294 C 50.822 142.294,50.985 136.114,50.985 124.681 L 50.985 107.068 59.096 107.068 C 64.195 107.068,67.207 107.241,67.207 107.532 C 67.207 107.787,67.050 107.995,66.857 107.995 C 64.205 107.995,63.588 123.167,66.046 127.921 C 67.052 129.866,70.758 133.350,72.769 134.241 C 73.407 134.523,74.471 135.010,75.135 135.322 C 75.799 135.634,76.946 135.826,77.685 135.749 C 78.423 135.671,79.303 135.778,79.639 135.986 C 80.413 136.464,89.375 135.847,89.718 135.292 C 89.859 135.064,90.587 134.878,91.337 134.878 C 92.086 134.878,92.700 134.670,92.700 134.415 C 92.700 134.160,92.993 133.951,93.351 133.951 C 94.229 133.951,97.798 132.022,97.798 131.548 C 97.798 131.340,98.086 131.170,98.437 131.170 C 99.413 131.170,100.307 129.933,99.556 129.623 C 99.227 129.486,99.420 129.426,99.985 129.488 C 100.570 129.552,101.591 130.397,102.351 131.446 C 103.869 133.542,105.684 134.878,107.013 134.878 C 107.511 134.878,107.988 135.086,108.073 135.339 C 108.245 135.854,115.056 136.080,115.838 135.596 C 116.113 135.426,116.338 134.266,116.338 133.019 C 116.338 131.771,116.580 130.220,116.875 129.572 C 117.564 128.060,116.345 126.535,114.446 126.535 C 111.654 126.535,111.240 125.119,111.240 115.581 L 111.240 107.068 127.237 107.068 C 138.435 107.068,143.545 107.229,144.270 107.604 C 146.357 108.683,146.847 108.865,148.500 109.175 C 149.426 109.349,150.298 109.676,150.438 109.902 C 150.578 110.128,151.201 110.313,151.823 110.313 C 152.446 110.313,152.955 110.521,152.955 110.776 C 152.955 111.031,153.372 111.240,153.882 111.240 C 154.392 111.240,154.809 111.448,154.809 111.703 C 154.809 111.958,155.090 112.167,155.433 112.167 C 156.401 112.167,159.444 115.348,159.444 116.361 C 159.444 116.858,159.652 117.265,159.907 117.265 C 160.162 117.265,160.371 117.891,160.371 118.656 C 160.371 119.421,160.188 120.046,159.965 120.046 C 159.742 120.046,159.442 120.620,159.297 121.321 C 159.106 122.253,158.249 123.094,156.111 124.450 L 153.187 126.304 145.142 126.252 C 139.381 126.215,136.999 126.040,136.750 125.637 C 136.559 125.328,135.538 124.959,134.482 124.817 C 133.425 124.675,132.561 124.364,132.561 124.126 C 132.561 122.863,130.005 124.046,129.860 125.377 C 129.777 126.141,129.516 126.965,129.281 127.207 C 129.045 127.450,128.853 128.946,128.853 130.534 C 128.853 133.813,129.984 134.878,133.466 134.878 C 134.396 134.878,135.408 135.130,135.715 135.437 C 136.525 136.247,155.459 136.266,156.268 135.458 C 156.587 135.139,157.432 134.878,158.146 134.878 C 158.860 134.878,159.444 134.670,159.444 134.415 C 159.444 134.160,159.835 133.951,160.314 133.951 C 161.358 133.951,162.424 132.795,162.006 132.118 C 161.841 131.852,161.927 131.634,162.197 131.634 C 162.467 131.634,162.688 131.866,162.688 132.151 C 162.688 132.789,164.776 131.503,166.456 129.830 C 167.893 128.400,170.104 124.008,170.104 122.586 C 170.104 122.039,170.237 121.458,170.400 121.296 C 170.834 120.862,170.895 114.918,170.468 114.655 C 170.268 114.531,170.104 113.933,170.104 113.326 C 170.104 112.718,169.896 112.093,169.641 111.935 C 169.386 111.778,169.177 111.316,169.177 110.909 C 169.177 110.502,168.645 109.471,167.995 108.618 L 166.813 107.068 175.387 107.068 L 183.962 107.068 184.151 113.673 C 184.366 121.185,184.972 124.961,186.424 127.842 C 187.502 129.983,191.278 133.951,192.236 133.951 C 192.555 133.951,192.816 134.160,192.816 134.415 C 192.816 134.670,193.191 134.878,193.650 134.878 C 194.109 134.878,194.745 135.139,195.064 135.458 C 195.478 135.872,197.726 136.037,202.966 136.037 C 207.859 136.037,210.696 135.845,211.517 135.458 C 212.193 135.139,213.216 134.699,213.789 134.481 C 216.759 133.348,220.593 131.212,221.602 130.127 C 222.762 128.881,222.943 129.114,222.943 131.849 C 222.943 135.025,223.441 135.342,228.437 135.342 C 234.139 135.342,233.604 136.836,233.604 120.924 L 233.604 107.068 248.088 107.061 C 256.054 107.057,262.851 106.878,263.191 106.662 C 263.673 106.356,263.797 104.376,263.752 97.631 C 263.721 92.880,263.879 88.992,264.105 88.992 C 264.330 88.992,265.120 88.471,265.861 87.834 C 266.601 87.197,267.468 86.675,267.787 86.675 C 268.105 86.675,268.366 86.466,268.366 86.211 C 268.366 85.956,268.627 85.747,268.946 85.745 C 269.264 85.744,270.551 85.223,271.805 84.587 C 273.059 83.950,274.450 83.430,274.895 83.430 C 275.340 83.430,275.792 83.169,275.899 82.851 C 276.035 82.443,277.355 82.271,280.346 82.271 C 283.558 82.271,284.545 82.129,284.377 81.692 C 284.254 81.373,284.454 81.112,284.820 81.112 C 285.187 81.112,285.401 81.373,285.297 81.692 C 285.193 82.010,285.966 82.897,287.016 83.662 C 289.067 85.156,290.526 87.252,290.580 88.783 C 290.599 89.306,290.820 89.940,291.073 90.192 C 291.357 90.476,291.577 98.297,291.652 110.795 L 291.773 130.939 296.987 131.070 L 302.202 131.201 302.202 119.352 C 302.202 110.289,302.338 107.455,302.781 107.301 C 303.100 107.191,307.897 107.041,313.442 106.968 L 323.524 106.837 323.523 120.201 C 323.523 130.686,323.398 133.523,322.943 133.372 C 322.498 133.223,322.364 130.210,322.364 120.399 C 322.364 113.370,322.207 107.717,322.016 107.835 C 321.567 108.113,321.574 133.571,322.023 134.183 C 322.821 135.268,324.432 135.562,328.389 135.342 L 332.561 135.110 332.793 121.205 L 333.024 107.300 341.115 107.173 C 346.774 107.084,349.309 106.879,349.549 106.491 C 349.737 106.186,350.058 106.102,350.261 106.305 C 350.464 106.508,350.266 106.878,349.822 107.126 C 348.928 107.627,348.664 110.968,349.479 111.472 C 349.733 111.629,349.942 112.997,349.942 114.512 C 349.942 116.038,350.149 117.265,350.406 117.265 C 350.660 117.265,350.869 117.879,350.869 118.628 C 350.869 119.378,351.078 120.121,351.333 120.278 C 351.587 120.436,351.796 120.886,351.796 121.278 C 351.796 122.246,353.189 125.120,354.336 126.519 C 356.312 128.930,358.626 131.170,359.140 131.170 C 359.434 131.170,359.676 131.360,359.676 131.592 C 359.676 132.053,363.337 133.951,364.225 133.951 C 364.527 133.951,364.774 134.160,364.774 134.415 C 364.774 134.670,365.462 134.878,366.304 134.878 C 367.145 134.878,368.031 135.076,368.273 135.319 C 369.905 136.950,394.307 135.897,397.087 134.075 C 398.190 133.352,398.575 131.026,397.683 130.475 C 397.428 130.318,397.219 129.406,397.219 128.449 C 397.219 125.320,395.111 123.973,392.415 125.379 C 391.685 125.760,390.538 126.087,389.866 126.104 C 388.767 126.134,388.737 126.177,389.571 126.535 C 390.387 126.886,390.342 126.938,389.196 126.966 C 388.480 126.984,387.991 126.842,388.109 126.651 C 388.227 126.460,384.850 126.304,380.605 126.304 L 372.885 126.304 369.224 124.464 C 363.861 121.769,360.603 116.526,360.603 110.591 C 360.603 109.448,360.391 108.383,360.131 108.222 C 358.576 107.261,361.747 107.068,379.149 107.068 L 398.104 107.068 398.394 105.520 C 398.871 102.981,398.342 89.003,397.747 88.407 C 397.457 88.117,397.219 87.501,397.219 87.039 C 397.219 86.577,397.035 85.836,396.810 85.393 C 396.584 84.951,396.145 84.039,395.833 83.368 C 393.814 79.022,388.123 74.064,383.974 73.036 C 381.912 72.525,369.905 72.341,369.612 72.816 C 369.470 73.045,368.637 73.233,367.759 73.233 C 366.882 73.233,366.165 73.441,366.165 73.696 C 366.165 73.951,365.741 74.160,365.223 74.160 C 364.705 74.160,364.161 74.473,364.015 74.855 C 363.868 75.238,363.405 75.554,362.986 75.558 C 362.321 75.564,362.312 75.628,362.920 76.065 C 363.499 76.481,363.474 76.519,362.771 76.291 C 361.655 75.929,360.002 76.842,360.311 77.648 C 360.474 78.073,360.319 78.194,359.845 78.012 C 358.147 77.360,351.796 86.152,351.796 89.154 C 351.796 89.830,351.587 90.382,351.333 90.382 C 351.078 90.382,350.869 90.996,350.869 91.746 C 350.869 92.495,350.660 93.238,350.406 93.395 C 350.151 93.553,349.942 94.608,349.942 95.740 L 349.942 97.798 341.367 97.798 L 332.793 97.798 332.793 87.833 L 332.793 77.868 327.512 77.868 C 323.124 77.868,322.184 77.992,321.950 78.601 C 321.542 79.664,321.604 96.776,322.016 97.032 C 322.207 97.151,322.302 93.566,322.226 89.066 C 322.087 80.770,322.249 78.795,323.068 78.795 C 323.690 78.795,323.681 98.109,323.059 98.494 C 322.804 98.651,322.596 98.559,322.596 98.289 C 322.596 97.959,319.266 97.798,312.399 97.798 L 302.202 97.798 302.202 92.264 C 302.202 89.220,302.013 86.612,301.782 86.470 C 301.551 86.327,301.457 85.844,301.574 85.396 C 302.395 82.259,294.634 73.233,291.116 73.233 C 290.615 73.233,290.085 73.037,289.937 72.799 C 288.922 71.156,272.782 72.870,270.220 74.892 C 269.838 75.194,269.056 75.584,268.482 75.759 C 267.908 75.933,267.439 76.271,267.439 76.509 C 267.439 76.746,267.211 76.941,266.931 76.941 C 266.652 76.941,265.835 77.360,265.116 77.872 L 263.809 78.802 263.858 77.061 C 263.953 73.658,263.353 73.233,258.456 73.233 C 252.250 73.233,252.607 72.430,252.607 86.363 L 252.607 97.798 243.105 97.798 L 233.604 97.798 233.604 90.831 L 233.604 83.863 228.389 83.994 L 223.175 84.125 223.054 101.746 C 222.937 118.694,222.898 119.385,222.028 119.823 C 213.343 124.193,211.078 125.390,210.841 125.737 C 210.457 126.296,203.546 126.739,201.422 126.340 C 199.466 125.973,196.060 122.883,196.060 121.475 C 196.060 120.987,195.814 120.505,195.514 120.405 C 195.124 120.275,194.891 117.032,194.703 109.126 L 194.438 98.030 171.619 97.910 L 148.801 97.790 146.625 96.575 C 142.674 94.369,141.367 92.433,141.367 88.784 C 141.367 85.770,143.990 82.503,146.410 82.503 C 147.103 82.503,147.869 82.309,148.111 82.073 C 148.741 81.459,153.476 81.329,154.577 81.895 C 155.087 82.158,156.443 82.402,157.590 82.439 C 158.737 82.475,159.745 82.713,159.830 82.967 C 159.915 83.222,160.596 83.430,161.343 83.430 C 162.090 83.430,163.128 83.691,163.650 84.009 C 164.826 84.727,165.933 83.518,165.933 81.515 C 165.933 80.814,166.113 80.129,166.334 79.992 C 168.118 78.890,166.870 74.160,164.795 74.160 C 164.248 74.160,163.603 73.973,163.360 73.744 C 161.773 72.244,141.831 72.245,141.831 73.745 C 141.831 73.973,141.414 74.160,140.904 74.160 C 140.394 74.160,139.977 74.366,139.977 74.617 C 139.977 74.869,139.258 75.375,138.379 75.742 C 135.470 76.957,129.538 84.205,132.329 83.134 C 132.711 82.987,133.024 83.084,133.024 83.348 C 133.024 83.613,132.555 83.896,131.981 83.977 C 130.816 84.143,130.074 95.034,131.155 96.115 C 132.682 97.641,131.774 97.798,121.437 97.798 L 111.240 97.798 111.240 90.873 C 111.240 86.756,111.052 83.832,110.776 83.662 C 110.521 83.504,110.313 82.970,110.313 82.476 C 110.313 81.981,110.104 81.576,109.849 81.576 C 109.594 81.576,109.386 81.309,109.386 80.982 C 109.386 80.126,104.904 75.550,104.066 75.550 C 103.678 75.550,103.360 75.382,103.360 75.176 C 103.360 74.744,100.530 73.482,98.494 73.006 C 94.931 72.173,76.810 72.783,76.209 73.756 C 76.071 73.978,75.371 74.160,74.653 74.160 C 73.934 74.160,73.087 74.473,72.769 74.855 C 72.452 75.238,71.841 75.550,71.411 75.550 C 69.844 75.550,68.766 76.780,69.409 77.833 C 69.728 78.355,69.988 79.190,69.988 79.688 C 69.988 80.187,70.197 80.723,70.452 80.881 C 70.707 81.038,70.915 81.748,70.915 82.458 C 70.915 83.878,72.471 85.678,72.982 84.851 C 73.150 84.579,73.784 84.357,74.392 84.357 C 74.999 84.357,75.625 84.148,75.782 83.893 C 75.940 83.638,76.849 83.430,77.803 83.430 C 78.756 83.430,79.792 83.174,80.105 82.861 C 80.501 82.465,82.713 82.289,87.382 82.282 C 93.517 82.272,95.079 82.052,93.511 81.419 C 93.192 81.291,93.394 81.169,93.960 81.149 C 94.691 81.123,94.911 81.313,94.721 81.808 C 94.553 82.248,94.728 82.503,95.200 82.503 C 95.609 82.503,95.944 82.711,95.944 82.966 C 95.944 83.221,96.272 83.430,96.673 83.430 C 98.931 83.430,100.209 86.509,100.471 92.584 L 100.696 97.798 70.510 97.798 L 40.324 97.798 40.324 109.283 C 40.324 122.026,40.531 121.157,37.046 123.101 C 36.172 123.588,35.353 124.113,35.226 124.269 C 33.113 126.849,23.506 127.163,19.670 124.777 C 16.619 122.880,13.801 119.833,12.722 117.265 C 12.562 116.883,12.189 116.069,11.893 115.456 C 11.107 113.826,11.145 94.933,11.935 94.670 C 12.254 94.563,12.514 94.087,12.514 93.611 C 12.514 91.752,16.859 86.410,19.467 85.063 C 22.454 83.520,22.694 83.430,23.837 83.430 C 24.462 83.430,25.103 83.221,25.261 82.966 C 25.427 82.698,27.969 82.503,31.314 82.503 L 37.080 82.503 37.080 78.116 C 37.080 74.407,36.955 73.664,36.269 73.309 C 35.119 72.712,28.312 72.323,26.651 72.759 M262.222 74.433 C 261.815 74.840,254.461 74.911,254.461 74.508 C 254.461 74.316,256.269 74.160,258.478 74.160 C 260.688 74.160,262.372 74.283,262.222 74.433 M373.117 80.649 C 373.117 80.904,372.700 81.112,372.190 81.112 C 371.680 81.112,371.263 80.904,371.263 80.649 C 371.263 80.394,371.680 80.185,372.190 80.185 C 372.700 80.185,373.117 80.394,373.117 80.649 M379.374 80.649 C 379.217 80.904,378.671 81.112,378.161 81.112 C 377.651 81.112,377.363 80.904,377.520 80.649 C 377.678 80.394,378.224 80.185,378.734 80.185 C 379.244 80.185,379.532 80.394,379.374 80.649 M369.177 81.758 C 368.413 82.093,366.692 83.476,365.353 84.831 C 362.704 87.514,361.986 87.357,364.426 84.629 C 366.235 82.607,368.374 81.186,369.641 81.164 C 370.319 81.153,370.195 81.312,369.177 81.758 M381.667 81.399 C 382.077 81.556,382.620 82.073,382.874 82.547 C 383.243 83.236,383.194 83.355,382.629 83.138 C 382.241 82.989,381.924 82.674,381.924 82.438 C 381.924 82.203,381.454 81.821,380.881 81.590 C 380.307 81.360,380.081 81.158,380.379 81.142 C 380.677 81.126,381.256 81.241,381.667 81.399 M380.168 82.155 C 380.725 82.474,381.597 83.101,382.106 83.548 C 382.615 83.996,383.372 84.254,383.790 84.121 C 384.634 83.853,386.446 85.552,385.898 86.098 C 385.707 86.287,385.122 85.921,384.597 85.284 C 383.548 84.010,383.555 84.038,385.118 87.370 C 387.210 91.831,387.421 92.488,387.607 95.133 L 387.794 97.798 374.198 97.798 L 360.603 97.798 360.603 96.377 C 360.603 95.596,360.816 94.558,361.077 94.070 C 361.459 93.355,361.415 93.237,360.845 93.455 C 360.393 93.629,360.139 93.458,360.139 92.981 C 360.139 92.572,360.382 92.289,360.678 92.352 C 360.974 92.416,361.789 91.344,362.489 89.969 C 364.027 86.949,366.719 84.017,369.200 82.660 C 371.366 81.475,378.412 81.151,380.168 82.155 M233.140 91.568 C 233.140 96.108,232.983 98.219,232.660 98.020 C 232.060 97.649,232.119 84.820,232.721 84.820 C 232.952 84.820,233.140 87.851,233.140 91.568 M301.622 90.962 C 301.453 91.943,301.420 91.929,301.076 90.731 C 300.876 90.031,300.875 89.092,301.074 88.645 C 301.528 87.631,301.915 89.268,301.622 90.962 M388.276 94.206 C 388.166 94.780,388.075 94.311,388.075 93.163 C 388.075 92.016,388.166 91.547,388.276 92.121 C 388.387 92.694,388.387 93.633,388.276 94.206 M292.932 111.035 C 292.932 124.385,292.782 130.206,292.444 129.997 C 291.631 129.494,291.932 91.773,292.749 91.773 C 292.850 91.773,292.932 100.441,292.932 111.035 M350.962 96.501 C 350.529 96.933,350.406 96.810,350.406 95.944 C 350.406 95.079,350.529 94.956,350.962 95.388 C 351.394 95.821,351.394 96.068,350.962 96.501 M360.139 97.150 L 360.139 98.764 374.276 98.629 C 382.051 98.554,388.413 98.653,388.413 98.848 C 388.413 99.043,381.895 99.147,373.928 99.080 L 359.444 98.957 359.299 96.942 C 359.203 95.607,359.321 95.030,359.647 95.231 C 359.917 95.399,360.139 96.262,360.139 97.150 M10.660 100.320 C 10.660 100.943,10.452 101.581,10.197 101.738 C 9.927 101.905,9.733 101.434,9.733 100.607 C 9.733 99.827,9.942 99.189,10.197 99.189 C 10.452 99.189,10.660 99.698,10.660 100.320 M193.623 110.429 C 193.535 112.277,193.463 110.765,193.463 107.068 C 193.463 103.372,193.535 101.860,193.623 103.708 C 193.711 105.556,193.711 108.581,193.623 110.429 M50.521 124.013 C 50.521 134.965,50.358 140.904,50.058 140.904 C 49.757 140.904,49.594 134.869,49.594 123.727 C 49.594 112.394,49.752 106.648,50.058 106.837 C 50.353 107.019,50.521 113.253,50.521 124.013 M233.140 120.305 C 233.140 128.785,232.975 133.488,232.677 133.488 C 232.378 133.488,232.213 128.689,232.213 120.019 C 232.213 111.158,232.372 106.648,232.677 106.837 C 232.968 107.017,233.140 112.017,233.140 120.305 M100.579 113.127 C 100.579 117.457,100.410 119.341,99.986 119.732 C 99.050 120.593,96.946 121.778,92.796 123.781 C 90.682 124.801,88.834 125.943,88.691 126.317 C 88.547 126.692,88.231 126.999,87.988 126.999 C 87.745 126.999,87.643 126.842,87.761 126.651 C 87.879 126.460,85.885 126.304,83.332 126.304 L 78.688 126.304 76.900 124.288 C 74.390 121.459,73.740 114.942,75.690 112.157 C 76.085 111.594,76.299 110.792,76.167 110.376 C 75.984 109.798,76.031 109.764,76.366 110.231 C 76.726 110.732,76.940 110.711,77.536 110.115 C 77.937 109.714,78.437 109.385,78.646 109.383 C 78.855 109.381,79.634 109.063,80.376 108.676 C 81.118 108.289,82.213 107.932,82.810 107.883 C 83.406 107.834,83.893 107.630,83.893 107.431 C 83.893 107.231,87.648 107.068,92.236 107.068 L 100.579 107.068 100.579 113.127 M184.811 114.151 C 184.714 115.226,184.636 114.229,184.637 111.935 C 184.639 109.641,184.718 108.761,184.814 109.979 C 184.910 111.198,184.909 113.075,184.811 114.151 M10.660 109.618 C 10.660 110.255,10.452 110.776,10.197 110.776 C 9.942 110.776,9.733 110.255,9.733 109.618 C 9.733 108.980,9.942 108.459,10.197 108.459 C 10.452 108.459,10.660 108.980,10.660 109.618 M1.254 112.746 C 1.144 113.320,1.053 112.851,1.053 111.703 C 1.053 110.556,1.144 110.087,1.254 110.660 C 1.365 111.234,1.365 112.173,1.254 112.746 M360.139 111.731 C 360.139 112.256,359.930 112.556,359.676 112.399 C 359.421 112.241,359.212 111.812,359.212 111.444 C 359.212 111.077,359.421 110.776,359.676 110.776 C 359.930 110.776,360.139 111.206,360.139 111.731 M131.727 125.238 C 131.294 125.670,131.047 125.670,130.614 125.238 C 130.182 124.805,130.305 124.681,131.170 124.681 C 132.036 124.681,132.159 124.805,131.727 125.238 M85.284 127.462 C 85.284 127.717,84.542 127.926,83.634 127.926 C 82.653 127.926,82.101 127.738,82.271 127.462 C 82.429 127.207,83.171 126.999,83.921 126.999 C 84.670 126.999,85.284 127.207,85.284 127.462 M206.952 127.462 C 206.795 127.717,205.727 127.926,204.580 127.926 C 203.308 127.926,202.606 127.745,202.781 127.462 C 202.939 127.207,204.006 126.999,205.153 126.999 C 206.426 126.999,207.127 127.180,206.952 127.462 M130.243 129.641 C 130.243 130.502,130.094 130.743,129.765 130.414 C 129.501 130.150,129.419 129.587,129.582 129.162 C 130.012 128.043,130.243 128.211,130.243 129.641 M115.267 134.299 C 115.151 134.745,115.055 134.380,115.055 133.488 C 115.055 132.596,115.151 132.231,115.267 132.677 C 115.384 133.123,115.384 133.853,115.267 134.299 M133.488 133.951 C 133.488 134.206,133.175 134.415,132.793 134.415 C 132.410 134.415,132.097 134.206,132.097 133.951 C 132.097 133.696,132.410 133.488,132.793 133.488 C 133.175 133.488,133.488 133.696,133.488 133.951 M138.586 134.878 C 138.586 135.133,138.286 135.342,137.918 135.342 C 137.551 135.342,137.122 135.133,136.964 134.878 C 136.807 134.623,137.107 134.415,137.632 134.415 C 138.157 134.415,138.586 134.623,138.586 134.878 M389.803 134.878 C 389.803 135.459,389.311 135.459,388.413 134.878 C 387.850 134.515,387.917 134.428,388.760 134.422 C 389.334 134.418,389.803 134.623,389.803 134.878 M148.899 135.669 C 148.326 135.779,147.387 135.779,146.813 135.669 C 146.240 135.558,146.709 135.468,147.856 135.468 C 149.003 135.468,149.473 135.558,148.899 135.669 M205.460 135.681 C 204.384 135.778,202.507 135.779,201.289 135.683 C 200.070 135.587,200.950 135.508,203.244 135.506 C 205.539 135.505,206.536 135.583,205.460 135.681 M38.007 147.161 C 37.690 147.543,37.221 147.856,36.966 147.856 C 36.708 147.856,36.758 147.549,37.080 147.161 C 37.397 146.779,37.866 146.466,38.120 146.466 C 38.379 146.466,38.329 146.773,38.007 147.161 M18.540 151.101 C 18.540 151.356,18.019 151.564,17.381 151.564 C 16.744 151.564,16.222 151.356,16.222 151.101 C 16.222 150.846,16.744 150.637,17.381 150.637 C 18.019 150.637,18.540 150.846,18.540 151.101 M28.969 151.101 C 29.126 151.356,28.826 151.564,28.301 151.564 C 27.776 151.564,27.346 151.356,27.346 151.101 C 27.346 150.846,27.647 150.637,28.014 150.637 C 28.382 150.637,28.811 150.846,28.969 151.101 M44.944 151.912 C 44.917 152.519,43.094 154.488,42.816 154.210 C 42.669 154.063,43.039 153.421,43.638 152.782 C 44.851 151.489,44.966 151.413,44.944 151.912 M25.845 159.762 C 25.402 159.878,24.568 159.882,23.991 159.772 C 23.415 159.661,23.778 159.566,24.797 159.561 C 25.817 159.556,26.289 159.646,25.845 159.762 " stroke="none" fill="#333333" fill-rule="evenodd"></path><path id="path2" d="M254.461 74.508 C 254.461 74.911,261.815 74.840,262.222 74.433 C 262.372 74.283,260.688 74.160,258.478 74.160 C 256.269 74.160,254.461 74.316,254.461 74.508 M322.432 79.481 C 322.052 80.470,322.004 96.950,322.378 97.912 C 323.203 100.033,323.523 97.407,323.523 88.501 C 323.523 79.777,323.234 77.390,322.432 79.481 M9.578 80.093 C 9.668 80.233,9.287 80.833,8.730 81.426 C 8.173 82.018,7.931 82.503,8.190 82.503 C 9.027 82.503,10.403 80.662,9.888 80.232 C 9.628 80.015,9.488 79.953,9.578 80.093 M371.263 80.649 C 371.263 80.904,371.680 81.112,372.190 81.112 C 372.700 81.112,373.117 80.904,373.117 80.649 C 373.117 80.394,372.700 80.185,372.190 80.185 C 371.680 80.185,371.263 80.394,371.263 80.649 M377.520 80.649 C 377.363 80.904,377.651 81.112,378.161 81.112 C 378.671 81.112,379.217 80.904,379.374 80.649 C 379.532 80.394,379.244 80.185,378.734 80.185 C 378.224 80.185,377.678 80.394,377.520 80.649 M93.428 81.460 C 93.659 81.651,93.978 81.982,94.136 82.194 C 94.295 82.407,94.552 82.250,94.707 81.847 C 94.909 81.318,94.711 81.112,93.999 81.112 C 93.454 81.112,93.198 81.269,93.428 81.460 M367.323 82.062 C 365.706 83.088,362.920 86.089,362.920 86.804 C 362.920 87.074,364.015 86.187,365.353 84.831 C 366.692 83.476,368.413 82.093,369.177 81.758 C 370.195 81.312,370.319 81.153,369.641 81.164 C 369.131 81.173,368.088 81.577,367.323 82.062 M380.881 81.590 C 381.454 81.821,381.924 82.203,381.924 82.438 C 381.924 82.674,382.241 82.989,382.629 83.138 C 383.194 83.355,383.243 83.236,382.874 82.547 C 382.407 81.674,381.367 81.088,380.379 81.142 C 380.081 81.158,380.307 81.360,380.881 81.590 M383.502 84.429 C 383.281 84.785,383.376 84.837,383.785 84.584 C 384.245 84.300,384.315 84.424,384.064 85.078 C 383.879 85.558,383.877 85.803,384.058 85.621 C 384.239 85.440,384.672 85.528,385.021 85.817 C 386.025 86.651,386.332 85.851,385.402 84.823 C 384.442 83.762,383.974 83.665,383.502 84.429 M232.240 91.272 C 232.202 95.290,232.360 97.835,232.660 98.020 C 232.983 98.219,233.140 96.108,233.140 91.568 C 233.140 87.851,232.952 84.820,232.721 84.820 C 232.490 84.820,232.274 87.723,232.240 91.272 M301.074 88.645 C 300.875 89.092,300.876 90.031,301.076 90.731 C 301.420 91.929,301.453 91.943,301.622 90.962 C 301.915 89.268,301.528 87.631,301.074 88.645 M388.075 93.163 C 388.075 94.311,388.166 94.780,388.276 94.206 C 388.387 93.633,388.387 92.694,388.276 92.121 C 388.166 91.547,388.075 92.016,388.075 93.163 M292.340 92.365 C 291.854 93.631,291.954 129.694,292.444 129.997 C 292.782 130.206,292.932 124.385,292.932 111.035 C 292.932 100.441,292.850 91.773,292.749 91.773 C 292.649 91.773,292.465 92.039,292.340 92.365 M360.139 92.897 C 360.139 93.244,360.417 93.634,360.757 93.765 C 361.097 93.895,361.375 93.718,361.375 93.371 C 361.375 93.024,361.097 92.633,360.757 92.503 C 360.417 92.372,360.139 92.549,360.139 92.897 M350.406 95.944 C 350.406 96.810,350.529 96.933,350.962 96.501 C 351.394 96.068,351.394 95.821,350.962 95.388 C 350.529 94.956,350.406 95.079,350.406 95.944 M359.299 96.942 L 359.444 98.957 373.928 99.080 C 381.895 99.147,388.413 99.043,388.413 98.848 C 388.413 98.653,382.051 98.554,374.276 98.629 L 360.139 98.764 360.139 97.150 C 360.139 96.262,359.917 95.399,359.647 95.231 C 359.321 95.030,359.203 95.607,359.299 96.942 M9.733 100.607 C 9.733 101.434,9.927 101.905,10.197 101.738 C 10.452 101.581,10.660 100.943,10.660 100.320 C 10.660 99.698,10.452 99.189,10.197 99.189 C 9.942 99.189,9.733 99.827,9.733 100.607 M193.463 107.068 C 193.463 110.765,193.535 112.277,193.623 110.429 C 193.711 108.581,193.711 105.556,193.623 103.708 C 193.535 101.860,193.463 103.372,193.463 107.068 M0.000 104.983 C 0.000 106.682,0.202 107.995,0.463 107.995 C 0.725 107.995,0.927 106.682,0.927 104.983 C 0.927 103.283,0.725 101.970,0.463 101.970 C 0.202 101.970,0.000 103.283,0.000 104.983 M49.594 123.727 C 49.594 134.869,49.757 140.904,50.058 140.904 C 50.358 140.904,50.521 134.965,50.521 124.013 C 50.521 113.253,50.353 107.019,50.058 106.837 C 49.752 106.648,49.594 112.394,49.594 123.727 M232.213 120.019 C 232.213 128.689,232.378 133.488,232.677 133.488 C 232.975 133.488,233.140 128.785,233.140 120.305 C 233.140 112.017,232.968 107.017,232.677 106.837 C 232.372 106.648,232.213 111.158,232.213 120.019 M321.955 107.324 C 321.803 107.720,321.833 107.948,322.022 107.832 C 322.210 107.715,322.364 113.370,322.364 120.399 C 322.364 130.210,322.498 133.223,322.943 133.372 C 323.398 133.523,323.523 130.663,323.523 120.085 C 323.523 108.872,323.414 106.605,322.877 106.605 C 322.522 106.605,322.107 106.929,321.955 107.324 M183.724 112.630 C 183.724 115.817,183.798 117.121,183.889 115.527 C 183.979 113.934,183.979 111.327,183.889 109.733 C 183.798 108.140,183.724 109.444,183.724 112.630 M100.291 113.094 C 100.291 116.025,100.366 117.225,100.458 115.759 C 100.550 114.293,100.550 111.895,100.458 110.429 C 100.366 108.963,100.291 110.162,100.291 113.094 M184.637 111.935 C 184.636 114.229,184.714 115.226,184.811 114.151 C 184.909 113.075,184.910 111.198,184.814 109.979 C 184.718 108.761,184.639 109.641,184.637 111.935 M9.733 109.618 C 9.733 110.255,9.942 110.776,10.197 110.776 C 10.452 110.776,10.660 110.255,10.660 109.618 C 10.660 108.980,10.452 108.459,10.197 108.459 C 9.942 108.459,9.733 108.980,9.733 109.618 M1.053 111.703 C 1.053 112.851,1.144 113.320,1.254 112.746 C 1.365 112.173,1.365 111.234,1.254 110.660 C 1.144 110.087,1.053 110.556,1.053 111.703 M359.212 111.444 C 359.212 111.812,359.421 112.241,359.676 112.399 C 359.930 112.556,360.139 112.256,360.139 111.731 C 360.139 111.206,359.930 110.776,359.676 110.776 C 359.421 110.776,359.212 111.077,359.212 111.444 M170.694 118.192 C 170.694 119.340,170.784 119.809,170.895 119.235 C 171.005 118.662,171.005 117.723,170.895 117.149 C 170.784 116.576,170.694 117.045,170.694 118.192 M130.614 125.238 C 131.047 125.670,131.294 125.670,131.727 125.238 C 132.159 124.805,132.036 124.681,131.170 124.681 C 130.305 124.681,130.182 124.805,130.614 125.238 M388.154 126.579 C 388.011 126.810,388.428 126.999,389.080 126.999 C 390.501 126.999,390.615 126.735,389.340 126.401 C 388.830 126.268,388.297 126.348,388.154 126.579 M82.271 127.462 C 82.101 127.738,82.653 127.926,83.634 127.926 C 84.542 127.926,85.284 127.717,85.284 127.462 C 85.284 127.207,84.670 126.999,83.921 126.999 C 83.171 126.999,82.429 127.207,82.271 127.462 M202.781 127.462 C 202.606 127.745,203.308 127.926,204.580 127.926 C 205.727 127.926,206.795 127.717,206.952 127.462 C 207.127 127.180,206.426 126.999,205.153 126.999 C 204.006 126.999,202.939 127.207,202.781 127.462 M129.582 129.162 C 129.419 129.587,129.501 130.150,129.765 130.414 C 130.094 130.743,130.243 130.502,130.243 129.641 C 130.243 128.211,130.012 128.043,129.582 129.162 M115.055 133.488 C 115.055 134.380,115.151 134.745,115.267 134.299 C 115.384 133.853,115.384 133.123,115.267 132.677 C 115.151 132.231,115.055 132.596,115.055 133.488 M132.097 133.951 C 132.097 134.206,132.410 134.415,132.793 134.415 C 133.175 134.415,133.488 134.206,133.488 133.951 C 133.488 133.696,133.175 133.488,132.793 133.488 C 132.410 133.488,132.097 133.696,132.097 133.951 M136.964 134.878 C 137.122 135.133,137.551 135.342,137.918 135.342 C 138.286 135.342,138.586 135.133,138.586 134.878 C 138.586 134.623,138.157 134.415,137.632 134.415 C 137.107 134.415,136.807 134.623,136.964 134.878 M388.413 134.878 C 389.311 135.459,389.803 135.459,389.803 134.878 C 389.803 134.623,389.334 134.418,388.760 134.422 C 387.917 134.428,387.850 134.515,388.413 134.878 M146.813 135.669 C 147.387 135.779,148.326 135.779,148.899 135.669 C 149.473 135.558,149.003 135.468,147.856 135.468 C 146.709 135.468,146.240 135.558,146.813 135.669 M201.289 135.683 C 202.507 135.779,204.384 135.778,205.460 135.681 C 206.536 135.583,205.539 135.505,203.244 135.506 C 200.950 135.508,200.070 135.587,201.289 135.683 M226.548 135.682 C 227.638 135.780,229.306 135.778,230.256 135.679 C 231.205 135.579,230.313 135.499,228.273 135.501 C 226.234 135.502,225.457 135.584,226.548 135.682 M326.188 135.681 C 327.271 135.779,329.044 135.779,330.127 135.681 C 331.211 135.584,330.324 135.504,328.158 135.504 C 325.991 135.504,325.104 135.584,326.188 135.681 M37.080 147.161 C 36.758 147.549,36.708 147.856,36.966 147.856 C 37.221 147.856,37.690 147.543,38.007 147.161 C 38.329 146.773,38.379 146.466,38.120 146.466 C 37.866 146.466,37.397 146.779,37.080 147.161 M16.222 151.101 C 16.222 151.356,16.744 151.564,17.381 151.564 C 18.019 151.564,18.540 151.356,18.540 151.101 C 18.540 150.846,18.019 150.637,17.381 150.637 C 16.744 150.637,16.222 150.846,16.222 151.101 M27.346 151.101 C 27.346 151.356,27.776 151.564,28.301 151.564 C 28.826 151.564,29.126 151.356,28.969 151.101 C 28.811 150.846,28.382 150.637,28.014 150.637 C 27.647 150.637,27.346 150.846,27.346 151.101 M43.638 152.782 C 43.039 153.421,42.669 154.063,42.816 154.210 C 43.094 154.488,44.917 152.519,44.944 151.912 C 44.966 151.413,44.851 151.489,43.638 152.782 " stroke="none" fill="#555555" fill-rule="evenodd"></path><path id="path3" d="M282.161 72.170 C 282.737 72.281,283.572 72.277,284.015 72.161 C 284.458 72.045,283.986 71.954,282.966 71.959 C 281.947 71.964,281.584 72.059,282.161 72.170 M263.919 97.567 C 263.919 101.645,263.990 103.252,264.076 101.137 C 264.162 99.022,264.162 95.684,264.075 93.721 C 263.989 91.757,263.918 93.488,263.919 97.567 " stroke="none" fill="#808080" fill-rule="evenodd"></path><path id="path4" d="" stroke="none" fill="#aaaaaa" fill-rule="evenodd"></path></g></svg>