<svg id="svg" version="1.1" width="1000" height="218" xmlns="http://www.w3.org/2000/svg" xmlns:xlink="http://www.w3.org/1999/xlink" style="display: block;"><g id="svgg"><path id="path0" d="" stroke="none" fill="#000000" fill-rule="evenodd"></path><path id="path1" d="M251.400 0.612 C 244.383 1.781,242.324 2.371,238.740 4.239 C 237.937 4.658,236.632 5.336,235.840 5.746 C 235.048 6.156,234.400 6.651,234.400 6.846 C 234.400 7.041,234.204 7.200,233.966 7.200 C 233.554 7.200,232.217 8.334,229.516 10.973 C 228.021 12.434,225.569 15.688,224.372 17.800 C 222.847 20.491,221.600 23.167,221.600 23.749 C 221.600 24.053,221.347 24.909,221.038 25.651 C 217.142 35.005,218.228 56.693,223.120 67.200 C 225.290 71.861,231.850 79.999,233.438 80.000 C 233.679 80.000,234.184 80.341,234.561 80.757 C 235.823 82.151,242.628 85.226,246.661 86.225 C 250.572 87.194,250.732 87.200,270.829 87.200 L 291.061 87.200 292.030 86.169 C 292.969 85.171,293.004 84.909,293.134 78.094 C 293.384 64.971,293.971 65.601,281.524 65.642 C 257.637 65.722,254.342 63.091,254.312 43.913 C 254.284 25.007,257.045 22.676,279.535 22.626 L 291.270 22.600 292.022 21.671 C 293.134 20.299,293.279 18.876,293.133 10.724 C 292.967 1.472,292.855 1.295,286.655 0.433 C 282.106 -0.200,255.460 -0.064,251.400 0.612 M332.000 0.247 C 331.450 0.338,329.290 0.689,327.200 1.027 C 319.868 2.214,313.950 5.095,309.000 9.887 C 306.661 12.151,304.400 14.639,304.400 14.948 C 304.400 15.067,303.934 15.847,303.365 16.682 C 295.823 27.743,295.033 54.546,301.848 68.146 C 305.733 75.899,315.075 83.805,322.460 85.590 C 323.197 85.768,324.873 86.203,326.184 86.557 C 330.569 87.740,367.000 87.498,372.029 86.252 C 391.267 81.489,399.800 68.383,399.800 43.600 C 399.800 25.871,396.415 16.324,387.629 9.268 C 386.623 8.461,385.710 7.689,385.600 7.553 C 385.150 6.998,380.865 4.515,379.000 3.728 C 371.229 0.452,369.656 0.260,349.800 0.164 C 340.560 0.119,332.550 0.156,332.000 0.247 M2.600 1.477 C 2.160 1.589,1.395 2.053,0.900 2.510 L 0.000 3.339 -0.000 43.892 L -0.000 84.445 1.244 85.581 C 2.973 87.161,3.366 87.200,17.350 87.198 C 30.552 87.195,32.074 87.024,33.630 85.368 L 34.600 84.336 34.600 43.977 L 34.600 3.618 33.491 2.509 L 32.383 1.400 17.891 1.337 C 9.921 1.303,3.040 1.366,2.600 1.477 M45.714 1.472 C 43.040 2.016,42.239 5.065,43.586 9.572 C 44.018 11.017,44.723 13.640,45.153 15.400 C 45.583 17.160,46.417 20.400,47.007 22.600 C 48.489 28.132,49.582 32.342,49.966 34.000 C 50.144 34.770,50.784 37.200,51.388 39.400 C 51.992 41.600,52.714 44.390,52.993 45.600 C 53.548 48.007,55.679 56.190,56.583 59.387 C 56.896 60.494,57.810 64.010,58.613 67.200 C 61.867 80.127,64.065 83.189,72.200 86.132 C 75.677 87.389,100.438 87.472,104.000 86.238 C 107.366 85.072,109.090 84.058,111.132 82.043 C 114.116 79.099,115.217 76.682,116.978 69.200 C 117.606 66.529,118.243 64.121,119.092 61.200 C 119.444 59.990,119.865 58.280,120.028 57.400 C 120.191 56.520,120.858 53.820,121.509 51.400 C 122.161 48.980,122.789 46.550,122.906 46.000 C 123.023 45.450,123.881 42.120,124.813 38.600 C 125.745 35.080,126.729 31.210,127.001 30.000 C 127.561 27.509,128.164 25.198,129.088 22.000 C 129.438 20.790,129.855 19.170,130.014 18.400 C 130.174 17.630,130.866 14.851,131.552 12.224 C 133.109 6.267,133.164 4.148,131.802 2.562 L 130.804 1.400 122.102 1.269 C 110.395 1.092,109.529 1.435,108.630 6.600 C 108.477 7.480,108.102 9.100,107.797 10.200 C 107.113 12.672,105.858 17.683,104.993 21.400 C 104.635 22.940,104.010 25.460,103.605 27.000 C 103.201 28.540,102.569 31.060,102.202 32.600 C 101.583 35.197,100.745 38.574,99.373 44.000 C 97.874 49.930,97.486 51.524,97.185 53.000 C 97.006 53.880,96.677 55.078,96.454 55.661 C 96.231 56.245,95.842 57.865,95.590 59.261 C 95.083 62.059,94.662 62.800,93.582 62.800 C 92.757 62.800,92.530 62.179,91.016 55.800 C 90.441 53.380,89.633 50.140,89.220 48.600 C 88.807 47.060,88.158 44.360,87.778 42.600 C 87.399 40.840,86.772 38.230,86.386 36.800 C 86.000 35.370,85.372 32.760,84.991 31.000 C 84.609 29.240,83.969 26.540,83.568 25.000 C 83.168 23.460,82.182 19.410,81.377 16.000 C 80.572 12.590,79.572 8.602,79.156 7.138 C 78.740 5.674,78.400 4.220,78.400 3.908 C 78.400 3.595,77.936 2.903,77.368 2.370 L 76.337 1.400 61.468 1.345 C 53.291 1.315,46.201 1.372,45.714 1.472 M154.200 1.472 C 148.298 2.218,143.031 6.811,140.862 13.102 C 140.010 15.573,140.000 15.946,140.008 44.102 L 140.017 72.600 140.977 75.321 C 142.880 80.713,146.261 83.969,152.200 86.128 C 155.775 87.427,209.848 87.509,211.755 86.218 C 213.712 84.893,214.000 83.555,214.000 75.793 C 214.000 63.965,215.594 64.820,193.513 64.809 L 176.027 64.800 174.613 63.387 L 173.200 61.973 173.200 57.787 L 173.200 53.600 187.594 53.600 L 201.987 53.600 203.294 52.433 L 204.600 51.266 204.600 43.841 L 204.600 36.415 203.290 35.108 L 201.979 33.800 187.590 33.833 L 173.200 33.866 173.200 29.622 C 173.200 22.104,172.334 22.400,194.352 22.400 L 211.529 22.400 212.549 21.188 C 215.479 17.705,214.404 2.456,211.164 1.549 C 210.174 1.272,156.356 1.199,154.200 1.472 M356.537 21.913 C 363.639 24.001,365.400 28.229,365.400 43.200 C 365.400 56.087,364.512 59.461,360.161 63.097 C 354.580 67.762,337.930 66.674,335.664 61.496 C 335.590 61.325,335.320 60.961,335.064 60.686 C 331.439 56.782,330.579 33.332,333.856 27.741 C 337.348 21.782,347.348 19.213,356.537 21.913 " stroke="none" fill="#003a80" fill-rule="evenodd"></path><path id="path2" d="" stroke="none" fill="#000055" fill-rule="evenodd"></path><path id="path3" d="" stroke="none" fill="#0000aa" fill-rule="evenodd"></path><path id="path4" d="" stroke="none" fill="#0000ff" fill-rule="evenodd"></path></g></svg>