<svg id="svg" version="1.1" width="1000" height="177" xmlns="http://www.w3.org/2000/svg" xmlns:xlink="http://www.w3.org/1999/xlink" style="display: block;"><g id="svgg"><path id="path0" d="" stroke="none" fill="#000000" fill-rule="evenodd"></path><path id="path1" d="" stroke="none" fill="#00ffff" fill-rule="evenodd"></path><path id="path2" d="M8.300 8.446 L 2.000 14.827 2.000 23.613 L 2.000 32.400 8.800 32.400 L 15.600 32.400 15.600 17.200 C 15.600 5.289,15.492 2.007,15.100 2.033 C 14.825 2.051,11.765 4.937,8.300 8.446 M17.290 8.700 L 17.400 15.400 32.500 15.505 C 44.518 15.588,47.600 15.506,47.600 15.100 C 47.600 14.820,44.763 11.758,41.295 8.295 L 34.991 2.000 26.086 2.000 L 17.181 2.000 17.290 8.700 M34.276 17.457 C 33.817 17.917,33.945 47.119,34.408 47.405 C 34.632 47.543,37.786 44.694,41.416 41.074 L 48.016 34.490 47.908 25.945 L 47.800 17.400 41.176 17.291 C 37.533 17.231,34.428 17.306,34.276 17.457 M282.600 34.166 C 274.168 36.561,270.374 40.609,270.353 47.233 C 270.325 55.921,277.895 61.069,290.189 60.723 C 297.750 60.511,298.000 60.396,298.000 57.141 L 298.000 54.711 296.503 54.992 C 294.518 55.364,287.383 55.580,285.531 55.323 C 283.305 55.015,280.147 51.956,279.520 49.501 C 277.693 42.349,283.454 37.886,292.933 39.112 L 295.666 39.465 297.033 37.675 C 297.785 36.690,298.400 35.663,298.400 35.391 C 298.400 34.015,286.405 33.085,282.600 34.166 M2.000 34.341 C 2.000 34.528,4.903 37.588,8.451 41.141 L 14.903 47.600 23.651 47.600 L 32.400 47.600 32.400 40.800 L 32.400 34.000 17.200 34.000 C 8.840 34.000,2.000 34.153,2.000 34.341 M58.000 42.620 C 58.000 54.576,57.526 55.403,50.824 55.133 L 46.800 54.972 46.800 57.678 C 46.800 60.997,46.679 60.944,53.888 60.726 C 59.683 60.551,61.958 59.726,64.103 57.024 C 65.897 54.765,66.000 54.044,66.000 43.774 L 66.000 34.000 62.000 34.000 L 58.000 34.000 58.000 42.620 M71.600 47.162 L 71.600 60.400 75.800 60.400 L 80.000 60.400 80.000 55.844 L 80.000 51.289 85.700 51.134 C 95.178 50.876,99.055 47.550,97.997 40.582 C 97.260 35.724,93.548 34.332,80.700 34.093 L 71.600 33.924 71.600 47.162 M102.000 47.190 L 102.000 60.400 106.000 60.400 L 110.000 60.400 110.024 50.900 L 110.048 41.400 111.632 45.400 C 113.495 50.102,115.435 55.437,116.245 58.083 C 116.965 60.436,116.747 60.328,121.019 60.441 L 124.600 60.536 125.438 58.168 C 125.898 56.866,126.463 55.350,126.692 54.800 C 128.080 51.464,130.000 46.242,130.000 45.804 C 130.000 45.520,130.356 44.503,130.791 43.544 L 131.582 41.800 131.591 50.467 C 131.602 61.324,131.188 60.400,136.043 60.400 L 140.000 60.400 140.000 47.200 L 140.000 34.000 133.624 34.000 C 129.979 34.000,127.145 34.165,127.010 34.384 C 126.879 34.596,125.871 37.341,124.769 40.484 C 120.525 52.594,120.842 52.071,119.911 48.500 C 119.581 47.235,118.818 44.940,118.216 43.400 C 117.613 41.860,116.625 39.160,116.019 37.400 L 114.918 34.200 108.459 34.090 L 102.000 33.980 102.000 47.190 M301.600 47.171 L 301.600 60.341 305.035 60.471 C 309.258 60.630,308.800 61.496,308.800 53.343 C 308.800 45.559,308.836 45.468,312.135 44.933 C 316.880 44.163,317.600 45.351,317.600 53.951 L 317.600 60.341 321.035 60.471 C 322.924 60.542,324.544 60.525,324.635 60.433 C 325.193 59.870,324.706 45.668,324.072 44.015 C 322.427 39.723,315.124 37.950,310.000 40.600 L 308.800 41.221 308.800 37.610 L 308.800 34.000 305.200 34.000 L 301.600 34.000 301.600 47.171 M88.507 40.214 C 92.204 42.727,89.850 45.739,84.035 45.937 L 80.000 46.075 80.000 42.637 L 80.000 39.200 83.507 39.200 C 86.602 39.200,87.190 39.319,88.507 40.214 M151.050 39.855 C 144.730 41.795,141.916 47.130,143.823 53.551 C 147.083 64.531,167.970 63.057,169.794 51.718 C 171.184 43.072,161.184 36.742,151.050 39.855 M183.729 39.570 C 183.029 39.744,181.814 40.267,181.029 40.730 C 179.627 41.557,179.600 41.558,179.600 40.787 C 179.600 40.066,179.314 40.000,176.200 40.000 L 172.800 40.000 172.800 50.200 L 172.800 60.400 176.400 60.400 L 180.000 60.400 180.000 54.426 C 180.000 46.051,180.510 45.022,184.698 44.961 L 187.361 44.921 188.681 42.968 C 190.177 40.752,190.299 40.141,189.300 39.850 C 187.796 39.411,184.939 39.267,183.729 39.570 M197.259 39.616 C 190.967 40.903,187.884 46.819,189.784 53.960 C 191.229 59.388,198.907 62.500,204.220 59.810 C 206.444 58.684,206.570 58.716,206.217 60.321 C 205.516 63.515,200.818 64.829,195.384 63.352 C 190.800 62.106,191.200 61.959,191.200 64.889 C 191.200 68.287,191.585 68.478,198.879 68.713 C 206.874 68.971,210.424 67.475,212.670 62.902 L 213.800 60.600 213.931 50.443 C 214.081 38.779,214.380 39.615,210.063 39.606 C 207.545 39.601,207.098 39.705,206.933 40.335 C 206.748 41.042,206.685 41.043,205.270 40.367 C 203.463 39.501,199.593 39.139,197.259 39.616 M224.800 39.585 C 223.590 39.744,221.925 40.000,221.100 40.155 L 219.600 40.436 219.600 42.818 C 219.600 44.128,219.761 45.200,219.957 45.200 C 220.154 45.200,221.716 44.910,223.428 44.556 C 228.114 43.587,232.000 44.388,232.000 46.323 C 232.000 46.932,231.346 47.091,227.226 47.484 C 217.921 48.372,213.988 52.528,217.623 57.632 C 219.966 60.923,228.074 62.110,231.507 59.666 C 232.798 58.747,232.800 58.747,232.800 59.589 C 232.800 60.388,232.973 60.426,236.100 60.316 L 239.400 60.200 239.510 53.479 C 239.637 45.664,239.338 44.138,237.269 42.069 C 235.036 39.836,230.216 38.876,224.800 39.585 M254.931 39.603 C 254.012 39.793,252.716 40.230,252.050 40.574 C 250.553 41.348,250.400 41.351,250.400 40.600 C 250.400 40.114,249.756 40.000,247.000 40.000 L 243.600 40.000 243.600 50.171 L 243.600 60.341 246.992 60.471 L 250.384 60.600 250.492 53.643 C 250.614 45.803,250.746 45.483,254.087 44.941 C 258.885 44.162,259.600 45.330,259.600 53.951 L 259.600 60.341 263.018 60.471 C 267.206 60.629,266.982 61.131,266.687 52.269 C 266.447 45.047,266.035 43.128,264.397 41.598 C 262.569 39.889,258.101 38.948,254.931 39.603 M335.279 39.664 C 330.561 40.265,330.336 40.416,330.479 42.898 C 330.619 45.327,330.344 45.253,335.913 44.363 C 339.840 43.735,342.223 44.280,343.077 46.000 L 343.574 47.000 338.436 47.467 C 330.540 48.184,327.990 49.803,328.014 54.081 C 328.034 57.688,329.188 59.292,332.547 60.388 C 334.951 61.173,340.703 60.772,342.531 59.694 C 343.964 58.848,344.000 58.846,344.000 59.613 C 344.000 60.326,344.284 60.400,347.000 60.400 L 350.000 60.400 350.000 51.938 L 350.000 43.476 348.445 41.997 C 346.088 39.754,341.273 38.901,335.279 39.664 M360.804 39.658 C 356.081 40.438,353.808 42.693,354.098 46.309 C 354.373 49.736,356.001 50.918,363.326 53.008 C 368.171 54.391,366.533 56.211,360.800 55.815 C 358.710 55.671,356.370 55.519,355.600 55.477 L 354.200 55.400 354.080 57.475 C 353.908 60.439,354.316 60.600,362.000 60.600 C 367.937 60.600,368.271 60.557,369.878 59.581 C 375.828 55.971,374.254 49.420,367.000 47.600 C 361.210 46.147,360.095 45.419,362.053 44.372 C 362.887 43.925,366.704 44.053,369.454 44.619 C 370.730 44.882,373.629 41.818,373.026 40.843 C 372.451 39.911,364.146 39.107,360.804 39.658 M383.881 39.609 C 373.752 41.352,371.508 54.567,380.509 59.463 C 382.682 60.645,391.393 61.161,394.500 60.292 C 395.719 59.952,396.282 55.183,395.100 55.212 C 394.825 55.219,393.311 55.392,391.735 55.597 C 387.832 56.104,384.617 55.558,383.132 54.135 C 380.989 52.082,381.255 52.000,390.053 52.000 L 398.105 52.000 397.918 49.083 C 397.471 42.112,391.754 38.254,383.881 39.609 M158.490 44.474 C 161.517 45.381,163.078 49.955,161.441 53.121 C 159.497 56.880,153.583 56.947,151.438 53.234 C 148.578 48.282,152.974 42.822,158.490 44.474 M388.752 44.443 C 389.807 44.811,391.200 46.483,391.200 47.380 C 391.200 47.501,389.130 47.600,386.600 47.600 C 381.767 47.600,381.608 47.537,382.651 46.048 C 383.880 44.294,386.412 43.628,388.752 44.443 M203.827 44.986 C 207.689 46.599,207.096 54.092,203.016 55.233 C 200.551 55.923,198.661 55.187,197.409 53.052 C 194.531 48.140,198.734 42.858,203.827 44.986 M232.324 53.097 C 232.045 56.470,224.000 57.336,224.000 53.994 C 224.000 52.505,226.067 51.648,229.724 51.621 L 232.448 51.600 232.324 53.097 M343.524 53.097 C 343.287 55.954,335.768 57.414,335.068 54.740 C 334.520 52.644,336.306 51.697,340.924 51.636 L 343.648 51.600 343.524 53.097 " stroke="none" fill="#1f4fa3" fill-rule="evenodd"></path><path id="path3" d="" stroke="none" fill="#0080ff" fill-rule="evenodd"></path><path id="path4" d="M73.913 60.695 C 75.076 60.776,76.876 60.776,77.913 60.693 C 78.951 60.611,78.000 60.545,75.800 60.546 C 73.600 60.547,72.751 60.614,73.913 60.695 M104.512 60.695 C 105.564 60.777,107.184 60.776,108.112 60.692 C 109.040 60.608,108.180 60.541,106.200 60.542 C 104.220 60.543,103.460 60.612,104.512 60.695 M119.100 60.693 C 120.035 60.777,121.565 60.777,122.500 60.693 C 123.435 60.609,122.670 60.540,120.800 60.540 C 118.930 60.540,118.165 60.609,119.100 60.693 M134.112 60.695 C 135.164 60.777,136.784 60.776,137.712 60.692 C 138.640 60.608,137.780 60.541,135.800 60.542 C 133.820 60.543,133.060 60.612,134.112 60.695 M175.111 60.693 C 176.051 60.778,177.491 60.777,178.311 60.691 C 179.130 60.605,178.360 60.536,176.600 60.537 C 174.840 60.539,174.170 60.609,175.111 60.693 M234.691 60.689 C 235.401 60.777,236.661 60.779,237.491 60.692 C 238.321 60.605,237.740 60.533,236.200 60.531 C 234.660 60.529,233.981 60.600,234.691 60.689 M245.511 60.693 C 246.451 60.778,247.891 60.777,248.711 60.691 C 249.530 60.605,248.760 60.536,247.000 60.537 C 245.240 60.539,244.570 60.609,245.511 60.693 M261.511 60.693 C 262.451 60.778,263.891 60.777,264.711 60.691 C 265.530 60.605,264.760 60.536,263.000 60.537 C 261.240 60.539,260.570 60.609,261.511 60.693 M303.511 60.693 C 304.451 60.778,305.891 60.777,306.711 60.691 C 307.530 60.605,306.760 60.536,305.000 60.537 C 303.240 60.539,302.570 60.609,303.511 60.693 M319.511 60.693 C 320.451 60.778,321.891 60.777,322.711 60.691 C 323.530 60.605,322.760 60.536,321.000 60.537 C 319.240 60.539,318.570 60.609,319.511 60.693 M345.700 60.691 C 346.525 60.778,347.875 60.778,348.700 60.691 C 349.525 60.605,348.850 60.534,347.200 60.534 C 345.550 60.534,344.875 60.605,345.700 60.691 " stroke="none" fill="#0000ff" fill-rule="evenodd"></path></g></svg>