<svg id="svg" version="1.1" width="1000" height="750" xmlns="http://www.w3.org/2000/svg" xmlns:xlink="http://www.w3.org/1999/xlink" style="display: block;"><g id="svgg"><path id="path0" d="M107.381 157.000 C 107.380 164.920,107.434 168.217,107.499 164.326 C 107.565 160.435,107.565 153.955,107.500 149.926 C 107.434 145.897,107.381 149.080,107.381 157.000 M132.514 159.800 C 132.517 160.900,132.595 161.303,132.687 160.695 C 132.779 160.086,132.777 159.186,132.682 158.695 C 132.587 158.203,132.511 158.700,132.514 159.800 " stroke="none" fill="#1d558e" fill-rule="evenodd"></path><path id="path1" d="M71.907 149.800 L 72.013 171.600 74.607 171.600 L 77.200 171.600 77.200 164.003 L 77.200 156.407 79.406 158.903 C 80.619 160.277,82.462 162.349,83.501 163.509 C 85.479 165.718,86.230 166.576,88.916 169.700 L 90.549 171.600 94.075 171.600 C 98.146 171.600,98.259 171.442,95.900 169.068 C 94.965 168.128,93.588 166.647,92.839 165.779 C 92.091 164.910,90.177 162.760,88.586 161.000 C 86.995 159.240,85.201 157.209,84.600 156.487 L 83.508 155.175 85.654 152.899 C 86.834 151.648,89.543 148.827,91.674 146.631 C 96.096 142.073,96.108 142.000,92.433 142.000 C 89.889 142.000,89.631 142.084,88.454 143.300 C 87.761 144.015,84.946 146.939,82.197 149.798 L 77.200 154.996 77.200 141.498 L 77.200 128.000 74.500 128.000 L 71.800 128.000 71.907 149.800 M348.800 149.800 L 348.800 171.600 351.400 171.600 L 354.000 171.600 354.000 164.200 C 354.000 159.533,354.148 156.800,354.400 156.800 C 354.620 156.800,354.800 156.946,354.800 157.125 C 354.800 157.303,355.122 157.798,355.516 158.225 C 356.955 159.785,363.084 166.632,364.028 167.736 C 364.563 168.361,365.551 169.493,366.224 170.252 L 367.449 171.632 371.143 171.516 L 374.836 171.400 373.318 169.763 C 371.069 167.337,365.922 161.627,364.363 159.828 C 363.613 158.963,362.418 157.636,361.707 156.879 C 360.111 155.180,359.802 155.703,366.605 148.581 C 373.339 141.531,373.129 142.003,369.533 141.985 L 366.600 141.970 360.304 148.485 L 354.009 155.000 354.004 141.500 L 354.000 128.000 351.400 128.000 L 348.800 128.000 348.800 149.800 M103.000 129.683 C 99.815 131.510,100.875 136.551,104.483 136.738 C 108.440 136.942,109.682 131.571,106.118 129.663 C 105.037 129.085,104.033 129.091,103.000 129.683 M0.000 151.000 L 0.000 171.600 2.795 171.600 L 5.591 171.600 5.695 155.900 C 5.798 140.562,5.816 140.232,6.511 141.600 C 7.357 143.265,8.112 144.524,8.431 144.800 C 8.559 144.910,8.937 145.540,9.272 146.200 C 9.607 146.860,11.977 150.945,14.540 155.277 C 17.103 159.609,19.200 163.344,19.200 163.577 C 19.200 163.810,19.380 164.000,19.600 164.000 C 19.820 164.000,20.000 164.255,20.000 164.567 C 20.000 164.878,20.139 165.193,20.310 165.267 C 20.480 165.340,21.416 166.802,22.390 168.516 L 24.161 171.632 26.980 171.516 L 29.800 171.400 29.800 151.000 L 29.800 130.600 27.000 130.600 L 24.200 130.600 24.000 146.200 C 23.890 154.780,23.670 161.484,23.512 161.097 C 23.353 160.711,22.191 158.641,20.929 156.497 C 19.668 154.354,18.688 152.530,18.752 152.445 C 18.816 152.359,18.718 152.179,18.534 152.045 C 18.194 151.796,17.561 150.759,16.429 148.600 C 16.083 147.940,15.691 147.310,15.557 147.200 C 15.283 146.975,12.202 141.640,11.282 139.800 C 10.953 139.140,10.466 138.330,10.201 138.000 C 9.936 137.670,9.289 136.590,8.763 135.600 C 8.238 134.610,7.401 133.243,6.904 132.562 C 6.407 131.881,6.000 131.116,6.000 130.862 C 6.000 130.554,5.003 130.400,3.000 130.400 L 0.000 130.400 0.000 151.000 M160.800 151.000 L 160.800 171.600 163.500 171.600 L 166.200 171.600 166.101 155.700 C 166.002 139.953,166.009 139.810,166.769 140.789 C 167.192 141.333,167.451 141.918,167.345 142.089 C 167.239 142.260,167.302 142.400,167.485 142.400 C 167.668 142.400,168.171 143.075,168.603 143.900 C 169.035 144.725,169.976 146.336,170.694 147.481 C 171.412 148.625,172.000 149.631,172.000 149.717 C 172.000 149.935,175.903 156.505,176.349 157.038 C 176.551 157.279,177.477 158.809,178.408 160.438 C 179.338 162.067,180.412 163.940,180.794 164.600 C 181.957 166.609,183.995 170.164,184.350 170.800 C 184.587 171.227,185.510 171.434,187.542 171.518 L 190.400 171.635 190.400 151.018 L 190.400 130.400 187.600 130.400 L 184.800 130.400 184.799 146.100 L 184.797 161.800 183.938 160.400 C 182.835 158.603,178.972 151.935,177.681 149.600 C 177.134 148.610,176.396 147.349,176.043 146.798 C 175.689 146.247,175.170 145.437,174.888 144.998 C 174.607 144.559,174.271 143.885,174.142 143.500 C 174.012 143.115,173.748 142.800,173.553 142.800 C 173.359 142.800,173.200 142.575,173.200 142.301 C 173.200 142.026,171.652 139.236,169.761 136.101 L 166.321 130.400 163.561 130.400 L 160.800 130.400 160.800 151.000 M237.000 133.209 C 236.340 133.389,235.260 133.698,234.600 133.895 L 233.400 134.255 233.200 138.227 L 233.000 142.200 230.083 142.200 L 227.167 142.200 227.283 144.600 L 227.400 147.000 230.300 147.118 L 233.200 147.235 233.262 155.718 C 233.339 166.104,233.323 165.873,234.090 167.647 C 235.448 170.790,238.715 172.169,244.229 171.928 C 248.655 171.734,248.442 171.876,248.140 169.319 L 247.899 167.286 244.973 167.242 C 238.966 167.152,238.800 166.838,238.800 155.620 L 238.800 147.200 243.000 147.200 L 247.200 147.200 247.201 144.700 L 247.201 142.200 243.101 142.200 L 239.000 142.200 238.887 137.500 C 238.825 134.915,238.645 132.818,238.487 132.841 C 238.329 132.863,237.660 133.029,237.000 133.209 M47.946 141.809 C 35.470 144.364,32.891 164.672,44.284 170.651 C 46.805 171.973,54.429 172.619,56.271 171.666 C 56.672 171.458,57.695 170.954,58.544 170.544 C 65.081 167.392,67.467 154.849,62.925 147.512 C 60.105 142.957,53.891 140.591,47.946 141.809 M121.553 141.899 C 119.372 142.341,115.764 143.802,115.412 144.386 C 115.341 144.503,115.644 145.365,116.086 146.300 C 116.961 148.153,117.568 148.354,119.457 147.411 C 121.169 146.557,125.492 146.238,128.079 146.775 C 131.074 147.397,132.253 148.738,132.672 152.000 L 132.852 153.400 127.512 153.308 C 124.563 153.258,121.462 153.413,120.586 153.655 C 112.862 155.786,111.254 167.506,118.216 170.920 C 120.542 172.061,127.618 172.542,128.200 171.600 C 128.336 171.380,128.726 171.200,129.066 171.200 C 129.406 171.200,130.386 170.645,131.242 169.966 L 132.800 168.733 132.800 170.185 L 132.800 171.638 135.300 171.519 L 137.800 171.400 137.907 160.623 C 138.024 148.781,137.786 147.104,135.662 144.828 C 132.896 141.864,127.376 140.718,121.553 141.899 M208.200 141.795 C 201.221 143.392,197.874 148.343,197.886 157.050 C 197.894 162.830,201.024 170.000,203.539 170.000 C 203.792 170.000,204.000 170.147,204.000 170.327 C 204.000 171.814,214.869 172.590,218.938 171.394 C 222.132 170.455,222.240 170.338,221.624 168.474 C 220.770 165.885,220.660 165.794,219.137 166.433 C 216.456 167.558,209.224 167.202,207.271 165.849 C 205.495 164.619,203.600 161.302,203.600 159.425 L 203.600 158.400 213.800 158.400 L 224.000 158.400 224.000 156.220 C 224.000 145.880,217.256 139.723,208.200 141.795 M302.400 141.804 C 289.172 145.335,287.681 166.375,300.308 171.330 C 303.132 172.438,309.699 172.266,312.291 171.016 C 324.483 165.134,321.619 143.102,308.490 141.773 C 307.230 141.645,305.750 141.492,305.200 141.433 C 304.650 141.373,303.390 141.540,302.400 141.804 M384.600 141.867 C 373.523 144.276,375.226 157.556,386.800 159.024 C 392.932 159.802,395.651 162.000,394.217 165.021 C 393.034 167.513,384.073 168.480,381.820 166.358 C 381.611 166.161,381.116 166.000,380.720 166.000 C 380.324 166.000,380.000 165.790,380.000 165.533 C 380.000 165.277,379.886 165.180,379.747 165.319 C 379.608 165.458,379.180 165.404,378.796 165.198 C 378.208 164.883,377.963 165.145,377.256 166.848 C 376.185 169.425,376.591 169.825,382.028 171.548 C 385.843 172.756,394.946 171.877,396.720 170.130 C 397.005 169.848,397.564 169.389,397.960 169.109 C 401.596 166.542,400.102 156.700,396.000 156.196 C 395.890 156.183,395.421 155.961,394.957 155.703 C 394.494 155.445,392.244 154.852,389.957 154.386 C 383.204 153.008,381.477 151.419,383.212 148.178 C 384.465 145.836,391.385 145.825,396.816 148.157 C 397.276 148.354,397.643 147.922,398.265 146.451 C 399.098 144.479,399.010 143.621,397.960 143.462 C 397.652 143.416,397.198 143.251,396.952 143.097 C 395.144 141.966,387.599 141.215,384.600 141.867 M102.001 156.900 L 102.000 171.600 104.590 171.600 L 107.181 171.600 107.290 156.900 L 107.400 142.200 104.701 142.200 L 102.002 142.200 102.001 156.900 M249.803 142.330 C 249.732 142.401,250.027 143.661,250.459 145.130 C 250.890 146.598,251.305 148.070,251.380 148.400 C 251.555 149.171,253.023 154.251,254.039 157.600 C 254.472 159.030,255.093 161.100,255.417 162.200 C 255.741 163.300,256.455 165.635,257.003 167.389 C 257.552 169.143,258.000 170.808,258.000 171.089 C 258.000 171.666,263.029 171.823,263.895 171.273 C 264.168 171.100,264.564 170.068,264.775 168.979 C 264.987 167.891,265.724 164.840,266.413 162.200 C 267.445 158.248,268.800 152.515,268.800 152.100 C 268.800 152.045,268.965 152.000,269.168 152.000 C 269.520 152.000,269.770 152.854,270.987 158.200 C 271.287 159.520,272.117 163.075,272.829 166.100 L 274.126 171.600 277.043 171.600 L 279.960 171.600 281.149 167.700 C 281.803 165.555,282.984 161.550,283.774 158.800 C 284.564 156.050,285.648 152.360,286.181 150.600 C 287.583 145.978,288.456 142.853,288.426 142.563 C 288.386 142.175,283.039 142.265,282.958 142.656 C 282.919 142.845,282.602 143.990,282.254 145.200 C 281.906 146.410,281.532 147.850,281.423 148.400 C 281.315 148.950,281.054 150.030,280.844 150.800 C 280.635 151.570,279.793 154.850,278.974 158.088 C 277.507 163.885,277.091 164.689,276.688 162.505 C 276.576 161.897,276.181 160.230,275.810 158.800 C 275.439 157.370,274.689 154.310,274.144 152.000 C 273.225 148.105,272.803 146.401,272.187 144.100 C 271.969 143.287,271.702 143.200,269.422 143.200 C 266.669 143.200,266.587 143.276,265.770 146.600 C 265.608 147.260,265.426 147.980,265.366 148.200 C 265.306 148.420,265.082 149.410,264.867 150.400 C 264.653 151.390,264.093 153.730,263.623 155.600 C 262.782 158.950,262.279 161.094,261.803 163.347 C 261.516 164.706,261.251 164.543,260.796 162.732 C 260.612 161.999,259.804 158.880,259.001 155.800 C 258.197 152.720,257.295 149.210,256.995 148.000 C 255.893 143.544,255.666 142.732,255.460 142.527 C 255.233 142.299,250.015 142.117,249.803 142.330 M326.400 156.900 L 326.400 171.600 329.200 171.600 L 332.000 171.600 332.000 163.884 C 332.000 156.274,332.597 151.624,333.619 151.267 C 333.829 151.193,334.000 150.952,334.000 150.730 C 334.000 150.508,334.360 149.869,334.800 149.309 C 335.240 148.750,335.600 148.406,335.600 148.546 C 335.600 148.686,335.950 148.450,336.378 148.022 C 337.309 147.091,339.304 146.664,341.801 146.863 C 343.827 147.024,343.809 147.048,344.131 143.700 L 344.295 142.000 341.248 142.022 C 337.664 142.049,335.321 142.866,333.375 144.768 L 332.038 146.076 331.779 144.138 L 331.521 142.200 328.960 142.200 L 326.399 142.200 326.400 156.900 M54.066 147.021 C 61.645 149.426,61.010 165.880,53.294 167.037 C 46.685 168.028,43.122 164.541,43.040 157.000 C 43.004 153.779,43.536 151.156,44.377 150.400 C 44.500 150.290,44.794 149.849,45.031 149.420 C 46.333 147.064,50.617 145.926,54.066 147.021 M214.592 146.922 C 215.313 147.291,216.952 149.082,217.034 149.590 C 217.052 149.706,217.277 150.307,217.534 150.926 C 217.790 151.545,218.000 152.490,218.000 153.026 L 218.000 154.000 210.826 154.000 L 203.653 154.000 203.844 152.944 C 204.802 147.663,210.163 144.660,214.592 146.922 M309.600 147.505 C 317.213 151.241,315.134 166.338,306.903 167.084 C 300.662 167.650,297.789 164.337,297.812 156.600 C 297.837 148.429,303.142 144.335,309.600 147.505 M130.393 157.862 L 132.904 158.125 132.662 160.718 C 132.239 165.241,129.888 167.304,124.963 167.470 C 119.853 167.642,117.411 163.821,120.252 160.097 C 122.056 157.731,124.333 157.229,130.393 157.862 " stroke="none" fill="#124191" fill-rule="evenodd"></path><path id="path2" d="M208.500 158.699 C 211.305 158.768,215.895 158.768,218.700 158.699 C 221.505 158.630,219.210 158.574,213.600 158.574 C 207.990 158.574,205.695 158.630,208.500 158.699 " stroke="none" fill="#0000ff" fill-rule="evenodd"></path></g></svg>