<svg id="svg" version="1.1" width="1000" height="792" xmlns="http://www.w3.org/2000/svg" xmlns:xlink="http://www.w3.org/1999/xlink" style="display: block;"><g id="svgg"><path id="path0" d="M208.000 259.631 C 183.830 262.697,173.092 290.199,189.580 306.807 C 203.570 320.899,228.714 318.874,239.403 302.795 C 253.240 281.981,234.531 256.266,208.000 259.631 M377.600 260.445 C 360.280 262.617,355.401 281.878,369.490 292.467 C 373.839 295.737,374.436 296.719,373.338 298.800 C 372.424 300.531,370.540 301.263,368.431 300.707 C 364.362 299.634,362.112 299.808,360.606 301.314 L 359.200 302.720 359.200 307.200 L 359.200 311.680 360.528 313.008 C 361.371 313.851,362.648 314.558,364.028 314.944 C 387.970 321.652,403.217 297.217,383.824 283.217 C 380.400 280.745,380.000 280.256,380.000 278.537 C 380.000 275.758,383.029 274.645,387.451 275.796 C 392.495 277.110,394.536 275.376,394.736 269.606 C 394.914 264.481,394.326 263.088,391.425 261.760 C 388.677 260.502,382.119 259.878,377.600 260.445 M8.951 261.357 C 6.274 262.560,6.400 261.251,6.400 287.800 C 6.400 317.006,5.707 314.801,14.887 314.799 C 22.404 314.798,23.598 313.633,23.599 306.300 L 23.600 302.000 26.500 301.993 C 51.798 301.932,58.223 270.318,34.600 262.135 C 30.714 260.789,11.511 260.206,8.951 261.357 M54.600 261.182 C 54.160 261.364,53.350 261.997,52.800 262.588 L 51.800 263.664 51.701 287.332 C 51.594 312.845,51.540 312.135,53.729 313.761 C 54.831 314.579,55.245 314.600,70.460 314.600 L 86.061 314.600 87.431 313.106 L 88.800 311.612 88.800 306.860 C 88.800 299.288,88.494 299.075,77.200 298.800 L 69.000 298.600 69.000 297.200 L 69.000 295.800 74.272 295.600 C 81.981 295.308,82.784 294.549,82.794 287.554 C 82.803 281.022,81.986 280.304,74.200 280.002 L 69.000 279.800 69.000 278.400 L 69.000 277.000 77.200 276.800 C 88.443 276.526,88.800 276.284,88.800 268.926 C 88.800 260.539,89.384 260.792,70.140 260.825 C 62.033 260.839,55.040 261.000,54.600 261.182 M93.559 261.714 C 91.824 262.880,91.250 264.573,91.225 268.600 C 91.181 275.450,92.251 276.529,99.300 276.742 L 104.000 276.884 104.000 294.062 C 104.000 316.020,103.533 314.977,113.258 314.731 L 118.464 314.600 119.832 313.106 L 121.200 311.612 121.200 294.206 L 121.200 276.800 125.192 276.800 C 132.659 276.800,133.600 275.894,133.600 268.703 C 133.600 260.350,134.804 260.800,112.479 260.800 L 94.918 260.800 93.559 261.714 M139.347 261.567 C 136.655 263.208,136.800 261.711,136.800 287.895 L 136.800 311.612 138.168 313.106 L 139.536 314.600 144.742 314.731 C 153.305 314.947,154.000 314.278,154.000 305.820 C 154.000 298.850,154.333 298.859,157.356 305.907 C 161.236 314.955,161.030 314.796,168.940 314.799 C 179.557 314.801,180.306 313.249,175.146 301.929 L 171.891 294.790 174.332 292.372 C 185.006 281.797,179.333 264.614,164.103 261.387 C 159.577 260.428,140.993 260.563,139.347 261.567 M248.800 261.082 C 248.470 261.203,247.795 261.670,247.300 262.121 L 246.400 262.939 246.400 287.381 C 246.400 314.205,246.283 312.898,248.804 314.202 C 250.848 315.259,259.526 315.039,261.235 313.888 C 263.500 312.361,263.588 311.910,263.594 301.700 C 263.597 296.585,263.734 292.400,263.897 292.400 C 264.061 292.400,269.192 297.395,275.300 303.500 L 286.405 314.600 290.637 314.600 C 294.778 314.600,294.890 314.576,295.835 313.478 L 296.800 312.355 296.800 288.358 C 296.800 258.731,297.446 260.800,288.200 260.800 C 279.723 260.800,279.600 260.982,279.600 273.513 C 279.600 278.548,279.475 282.792,279.321 282.945 C 279.168 283.099,273.986 278.179,267.805 272.012 L 256.568 260.800 252.984 260.832 C 251.013 260.849,249.130 260.962,248.800 261.082 M318.586 261.181 C 318.138 261.362,317.557 261.770,317.294 262.086 C 316.607 262.915,299.200 310.412,299.200 311.459 C 299.200 314.287,300.525 314.800,307.820 314.800 C 315.001 314.800,315.928 314.479,317.135 311.575 L 317.956 309.600 328.478 309.601 L 339.000 309.603 340.000 311.701 C 341.427 314.696,341.868 314.836,349.490 314.708 C 356.862 314.585,357.806 314.218,357.715 311.509 C 357.630 308.980,340.488 263.137,339.164 261.900 L 337.987 260.800 328.694 260.825 C 323.582 260.839,319.034 260.999,318.586 261.181 M28.790 275.595 C 34.669 278.594,32.267 286.770,25.500 286.793 L 23.600 286.800 23.600 280.800 L 23.600 274.800 25.416 274.800 C 26.438 274.800,27.912 275.147,28.790 275.595 M159.917 275.871 C 165.003 279.639,162.462 287.084,156.214 286.718 L 154.200 286.600 154.088 281.220 C 154.026 278.261,154.074 275.584,154.194 275.271 C 154.519 274.425,158.532 274.845,159.917 275.871 M218.000 275.791 C 223.929 277.879,227.951 284.257,226.809 289.758 C 224.177 302.433,205.704 304.647,199.958 292.976 C 194.821 282.542,206.252 271.654,218.000 275.791 M331.073 287.823 C 332.247 290.890,333.122 293.625,333.017 293.900 C 332.804 294.454,324.971 294.625,324.141 294.094 C 323.570 293.729,327.895 281.898,328.523 282.108 C 328.751 282.184,329.899 284.756,331.073 287.823 " stroke="none" fill="#000000" fill-rule="evenodd"></path><path id="path1" d="M208.000 259.631 C 183.830 262.697,173.092 290.199,189.580 306.807 C 203.570 320.899,228.714 318.874,239.403 302.795 C 253.240 281.981,234.531 256.266,208.000 259.631 M377.600 260.445 C 360.280 262.617,355.401 281.878,369.490 292.467 C 373.839 295.737,374.436 296.719,373.338 298.800 C 372.424 300.531,370.540 301.263,368.431 300.707 C 364.362 299.634,362.112 299.808,360.606 301.314 L 359.200 302.720 359.200 307.200 L 359.200 311.680 360.528 313.008 C 361.371 313.851,362.648 314.558,364.028 314.944 C 387.970 321.652,403.217 297.217,383.824 283.217 C 380.400 280.745,380.000 280.256,380.000 278.537 C 380.000 275.758,383.029 274.645,387.451 275.796 C 392.495 277.110,394.536 275.376,394.736 269.606 C 394.914 264.481,394.326 263.088,391.425 261.760 C 388.677 260.502,382.119 259.878,377.600 260.445 M8.951 261.357 C 6.274 262.560,6.400 261.251,6.400 287.800 C 6.400 317.006,5.707 314.801,14.887 314.799 C 22.404 314.798,23.598 313.633,23.599 306.300 L 23.600 302.000 26.500 301.993 C 51.798 301.932,58.223 270.318,34.600 262.135 C 30.714 260.789,11.511 260.206,8.951 261.357 M54.600 261.182 C 54.160 261.364,53.350 261.997,52.800 262.588 L 51.800 263.664 51.701 287.332 C 51.594 312.845,51.540 312.135,53.729 313.761 C 54.831 314.579,55.245 314.600,70.460 314.600 L 86.061 314.600 87.431 313.106 L 88.800 311.612 88.800 306.860 C 88.800 299.288,88.494 299.075,77.200 298.800 L 69.000 298.600 69.000 297.200 L 69.000 295.800 74.272 295.600 C 81.981 295.308,82.784 294.549,82.794 287.554 C 82.803 281.022,81.986 280.304,74.200 280.002 L 69.000 279.800 69.000 278.400 L 69.000 277.000 77.200 276.800 C 88.443 276.526,88.800 276.284,88.800 268.926 C 88.800 260.539,89.384 260.792,70.140 260.825 C 62.033 260.839,55.040 261.000,54.600 261.182 M93.559 261.714 C 91.824 262.880,91.250 264.573,91.225 268.600 C 91.181 275.450,92.251 276.529,99.300 276.742 L 104.000 276.884 104.000 294.062 C 104.000 316.020,103.533 314.977,113.258 314.731 L 118.464 314.600 119.832 313.106 L 121.200 311.612 121.200 294.206 L 121.200 276.800 125.192 276.800 C 132.659 276.800,133.600 275.894,133.600 268.703 C 133.600 260.350,134.804 260.800,112.479 260.800 L 94.918 260.800 93.559 261.714 M139.347 261.567 C 136.655 263.208,136.800 261.711,136.800 287.895 L 136.800 311.612 138.168 313.106 L 139.536 314.600 144.742 314.731 C 153.305 314.947,154.000 314.278,154.000 305.820 C 154.000 298.850,154.333 298.859,157.356 305.907 C 161.236 314.955,161.030 314.796,168.940 314.799 C 179.557 314.801,180.306 313.249,175.146 301.929 L 171.891 294.790 174.332 292.372 C 185.006 281.797,179.333 264.614,164.103 261.387 C 159.577 260.428,140.993 260.563,139.347 261.567 M248.800 261.082 C 248.470 261.203,247.795 261.670,247.300 262.121 L 246.400 262.939 246.400 287.381 C 246.400 314.205,246.283 312.898,248.804 314.202 C 250.848 315.259,259.526 315.039,261.235 313.888 C 263.500 312.361,263.588 311.910,263.594 301.700 C 263.597 296.585,263.734 292.400,263.897 292.400 C 264.061 292.400,269.192 297.395,275.300 303.500 L 286.405 314.600 290.637 314.600 C 294.778 314.600,294.890 314.576,295.835 313.478 L 296.800 312.355 296.800 288.358 C 296.800 258.731,297.446 260.800,288.200 260.800 C 279.723 260.800,279.600 260.982,279.600 273.513 C 279.600 278.548,279.475 282.792,279.321 282.945 C 279.168 283.099,273.986 278.179,267.805 272.012 L 256.568 260.800 252.984 260.832 C 251.013 260.849,249.130 260.962,248.800 261.082 M318.586 261.181 C 318.138 261.362,317.557 261.770,317.294 262.086 C 316.607 262.915,299.200 310.412,299.200 311.459 C 299.200 314.287,300.525 314.800,307.820 314.800 C 315.001 314.800,315.928 314.479,317.135 311.575 L 317.956 309.600 328.478 309.601 L 339.000 309.603 340.000 311.701 C 341.427 314.696,341.868 314.836,349.490 314.708 C 356.862 314.585,357.806 314.218,357.715 311.509 C 357.630 308.980,340.488 263.137,339.164 261.900 L 337.987 260.800 328.694 260.825 C 323.582 260.839,319.034 260.999,318.586 261.181 M28.790 275.595 C 34.669 278.594,32.267 286.770,25.500 286.793 L 23.600 286.800 23.600 280.800 L 23.600 274.800 25.416 274.800 C 26.438 274.800,27.912 275.147,28.790 275.595 M159.917 275.871 C 165.003 279.639,162.462 287.084,156.214 286.718 L 154.200 286.600 154.088 281.220 C 154.026 278.261,154.074 275.584,154.194 275.271 C 154.519 274.425,158.532 274.845,159.917 275.871 M218.000 275.791 C 223.929 277.879,227.951 284.257,226.809 289.758 C 224.177 302.433,205.704 304.647,199.958 292.976 C 194.821 282.542,206.252 271.654,218.000 275.791 M331.073 287.823 C 332.247 290.890,333.122 293.625,333.017 293.900 C 332.804 294.454,324.971 294.625,324.141 294.094 C 323.570 293.729,327.895 281.898,328.523 282.108 C 328.751 282.184,329.899 284.756,331.073 287.823 " stroke="none" fill="#000000" fill-rule="evenodd"></path><path id="path2" d="M165.800 60.095 C 149.300 89.608,133.837 117.185,131.438 121.378 C 113.469 152.775,112.979 182.851,129.993 210.000 C 171.137 275.651,273.031 254.644,284.200 178.207 C 287.184 157.788,283.724 144.026,268.673 116.435 C 265.863 111.285,263.639 106.875,263.731 106.635 C 263.823 106.396,275.860 84.960,290.480 59.000 C 305.099 33.040,317.738 10.585,318.565 9.100 L 320.069 6.400 257.934 6.418 L 195.800 6.435 165.800 60.095 M305.475 13.350 C 305.358 13.653,293.371 34.548,278.836 59.785 C 255.268 100.706,252.459 105.764,252.868 106.535 C 253.121 107.011,255.975 111.990,259.210 117.600 C 267.982 132.809,269.944 137.031,272.129 145.400 C 286.476 200.350,238.511 251.014,183.003 239.542 C 134.902 229.601,108.483 175.275,130.457 131.487 C 131.872 128.666,184.155 37.418,197.487 14.500 L 198.476 12.800 252.081 12.800 C 297.401 12.800,305.653 12.885,305.475 13.350 M209.527 31.300 C 209.963 32.015,217.459 45.020,226.185 60.200 C 234.912 75.380,242.175 87.926,242.326 88.079 C 242.535 88.292,275.306 32.001,275.933 30.350 C 276.009 30.152,261.507 30.000,242.401 30.000 L 208.735 30.000 209.527 31.300 M173.400 90.642 C 145.859 138.459,144.616 140.724,142.827 146.358 C 126.952 196.331,177.526 240.639,224.600 217.999 C 253.484 204.107,265.853 167.811,251.522 139.000 C 250.111 136.165,199.416 47.785,198.833 47.145 C 198.705 47.004,187.260 66.578,173.400 90.642 M205.785 114.605 C 247.336 120.868,264.174 171.381,234.578 200.978 C 207.859 227.696,162.458 216.854,150.404 180.877 C 140.695 151.895,160.290 119.217,190.000 114.844 C 191.650 114.601,193.450 114.336,194.000 114.256 C 196.496 113.889,202.147 114.057,205.785 114.605 " stroke="none" fill="#ffffff" fill-rule="evenodd"></path><path id="path3" d="M165.600 70.213 C 131.130 130.147,128.911 134.197,126.608 141.391 C 108.733 197.234,157.350 251.420,214.510 239.360 C 259.492 229.870,285.862 181.646,269.718 138.400 C 267.765 133.169,266.085 129.916,258.749 117.167 C 255.257 111.098,252.400 105.943,252.400 105.711 C 252.400 105.404,294.830 31.383,304.684 14.500 L 305.676 12.800 252.138 12.818 L 198.600 12.835 165.600 70.213 M276.333 29.992 C 275.846 31.423,242.545 88.697,242.328 88.476 C 242.179 88.324,234.912 75.780,226.180 60.600 C 217.447 45.420,209.857 32.235,209.313 31.300 L 208.324 29.600 242.395 29.600 C 264.447 29.600,276.420 29.738,276.333 29.992 M224.728 91.594 C 258.791 150.854,257.397 147.720,257.397 165.000 C 257.397 218.463,193.228 244.393,156.160 205.908 C 138.893 187.981,134.664 160.596,145.775 138.657 C 148.120 134.027,198.427 46.796,198.741 46.817 C 198.883 46.827,210.578 66.977,224.728 91.594 M193.955 114.386 C 151.008 118.741,132.632 171.134,163.451 201.361 C 192.429 229.783,241.649 213.645,248.587 173.448 C 254.202 140.914,226.601 111.076,193.955 114.386 " stroke="none" fill="#00ae9d" fill-rule="evenodd"></path><path id="path4" d="M220.400 29.893 C 252.302 30.169,276.400 30.172,276.400 29.900 C 276.400 29.735,261.055 29.642,242.300 29.694 C 223.545 29.746,213.690 29.835,220.400 29.893 M200.900 114.276 C 201.285 114.376,201.915 114.376,202.300 114.276 C 202.685 114.175,202.370 114.093,201.600 114.093 C 200.830 114.093,200.515 114.175,200.900 114.276 M234.383 128.900 C 235.364 129.945,236.219 130.800,236.283 130.800 C 236.584 130.800,236.266 130.441,234.500 128.783 L 232.600 127.000 234.383 128.900 M122.893 158.800 C 122.893 159.570,122.975 159.885,123.076 159.500 C 123.176 159.115,123.176 158.485,123.076 158.100 C 122.975 157.715,122.893 158.030,122.893 158.800 M139.728 162.400 C 139.728 163.830,139.801 164.415,139.889 163.700 C 139.978 162.985,139.978 161.815,139.889 161.100 C 139.801 160.385,139.728 160.970,139.728 162.400 M274.550 165.000 C 274.551 167.420,274.616 168.358,274.696 167.085 C 274.776 165.812,274.775 163.832,274.694 162.685 C 274.614 161.538,274.549 162.580,274.550 165.000 M249.346 165.000 C 249.347 167.200,249.414 168.049,249.495 166.887 C 249.576 165.724,249.576 163.924,249.493 162.887 C 249.411 161.849,249.345 162.800,249.346 165.000 M139.728 167.600 C 139.728 169.030,139.801 169.615,139.889 168.900 C 139.978 168.185,139.978 167.015,139.889 166.300 C 139.801 165.585,139.728 166.170,139.728 167.600 M122.893 171.200 C 122.893 171.970,122.975 172.285,123.076 171.900 C 123.176 171.515,123.176 170.885,123.076 170.500 C 122.975 170.115,122.893 170.430,122.893 171.200 M159.600 197.725 C 159.600 197.794,160.185 198.379,160.900 199.025 L 162.200 200.200 161.025 198.900 C 159.930 197.688,159.600 197.416,159.600 197.725 M163.600 201.725 C 163.600 201.794,164.185 202.379,164.900 203.025 L 166.200 204.200 165.025 202.900 C 163.930 201.688,163.600 201.416,163.600 201.725 M240.187 206.900 L 237.800 209.400 240.300 207.013 C 241.675 205.699,242.800 204.574,242.800 204.513 C 242.800 204.217,242.405 204.578,240.187 206.900 M196.900 215.894 C 197.945 215.976,199.655 215.976,200.700 215.894 C 201.745 215.812,200.890 215.744,198.800 215.744 C 196.710 215.744,195.855 215.812,196.900 215.894 M252.189 218.900 L 249.400 221.800 252.300 219.011 C 254.994 216.420,255.383 216.000,255.089 216.000 C 255.028 216.000,253.723 217.305,252.189 218.900 M191.700 223.876 C 192.085 223.976,192.715 223.976,193.100 223.876 C 193.485 223.775,193.170 223.693,192.400 223.693 C 191.630 223.693,191.315 223.775,191.700 223.876 M197.091 224.289 C 197.801 224.377,199.061 224.379,199.891 224.292 C 200.721 224.205,200.140 224.133,198.600 224.131 C 197.060 224.129,196.381 224.200,197.091 224.289 M193.300 241.076 C 193.685 241.176,194.315 241.176,194.700 241.076 C 195.085 240.975,194.770 240.893,194.000 240.893 C 193.230 240.893,192.915 240.975,193.300 241.076 M202.500 241.076 C 202.885 241.176,203.515 241.176,203.900 241.076 C 204.285 240.975,203.970 240.893,203.200 240.893 C 202.430 240.893,202.115 240.975,202.500 241.076 " stroke="none" fill="#e3f6f4" fill-rule="evenodd"></path></g></svg>