<svg id="svg" version="1.1" width="1000" height="927" xmlns="http://www.w3.org/2000/svg" xmlns:xlink="http://www.w3.org/1999/xlink" style="display: block;"><g id="svgg"><path id="path0" d="M191.400 8.030 C 75.532 12.657,-10.746 121.245,11.058 235.005 L 11.672 238.211 21.926 245.605 C 27.566 249.672,35.784 255.596,40.190 258.770 C 65.129 276.734,70.879 280.945,71.025 281.351 C 71.113 281.598,72.277 290.440,73.610 301.000 C 74.943 311.560,76.746 325.780,77.617 332.600 C 78.488 339.420,79.386 346.620,79.612 348.600 C 79.839 350.580,80.113 352.605,80.220 353.100 L 80.415 354.000 128.942 354.000 L 177.469 354.000 181.634 356.643 C 195.159 365.222,205.504 365.254,218.033 356.756 L 221.800 354.200 270.992 354.000 L 320.185 353.800 321.849 340.600 C 322.764 333.340,324.800 317.140,326.372 304.600 C 327.945 292.060,329.298 281.603,329.379 281.361 C 329.461 281.120,341.379 272.321,355.864 261.808 C 370.349 251.295,383.579 241.683,385.264 240.447 L 388.329 238.200 388.966 234.800 C 411.669 113.644,315.345 3.081,191.400 8.030 M189.400 43.543 L 191.800 43.800 192.072 51.000 C 192.221 54.960,192.539 62.790,192.777 68.400 C 193.015 74.010,194.466 109.920,196.003 148.200 C 197.539 186.480,199.067 224.130,199.398 231.867 C 199.729 239.604,200.030 247.344,200.067 249.067 C 200.175 254.104,200.339 250.893,201.402 222.800 C 202.542 192.686,202.877 183.877,203.988 154.800 C 204.421 143.470,204.965 128.980,205.197 122.600 C 205.429 116.220,205.784 107.130,205.987 102.400 C 206.190 97.670,206.767 82.674,207.269 69.076 C 207.771 55.478,208.315 44.138,208.477 43.876 C 209.017 43.001,224.117 43.311,230.000 44.318 C 239.513 45.946,253.779 50.933,257.113 53.796 C 257.175 53.849,256.775 56.122,256.223 58.846 C 255.121 64.290,238.275 147.911,229.801 190.000 C 226.856 204.630,222.904 224.246,221.020 233.590 C 219.135 242.935,217.640 250.709,217.697 250.867 C 217.754 251.025,220.901 240.319,224.691 227.077 C 228.480 213.835,235.169 190.490,239.554 175.200 C 243.939 159.910,252.685 129.400,258.988 107.400 C 265.292 85.400,270.806 66.185,271.242 64.700 C 272.172 61.528,271.995 61.569,276.866 63.418 C 290.458 68.579,306.165 80.183,312.667 89.868 C 313.208 90.674,312.934 91.409,308.776 100.268 C 306.316 105.510,300.165 118.620,295.106 129.400 C 283.951 153.173,281.821 157.710,258.393 207.600 C 248.217 229.270,239.486 247.900,238.992 249.000 C 238.497 250.100,237.478 252.260,236.727 253.800 C 232.689 262.081,233.968 260.005,250.407 231.600 C 264.351 207.505,293.139 157.826,299.837 146.300 C 307.046 133.892,309.143 130.276,316.013 118.400 C 320.021 111.470,323.374 105.720,323.462 105.622 C 323.724 105.332,329.064 110.731,332.169 114.424 C 339.088 122.653,344.752 133.287,347.753 143.682 L 348.698 146.954 343.318 153.577 C 338.579 159.412,324.764 176.456,310.554 194.000 C 307.970 197.190,300.093 206.910,293.049 215.600 C 286.006 224.290,278.351 233.740,276.039 236.600 C 273.726 239.460,269.566 244.590,266.793 248.000 C 264.020 251.410,259.004 257.620,255.647 261.800 L 249.542 269.400 266.271 252.593 C 275.472 243.349,298.374 220.257,317.165 201.278 C 335.956 182.299,351.471 166.912,351.642 167.085 C 352.170 167.619,354.619 174.396,355.731 178.400 C 358.762 189.319,359.372 202.281,357.397 213.800 C 356.262 220.421,357.243 219.318,343.600 229.298 C 336.890 234.207,324.033 243.617,315.028 250.211 C 306.024 256.805,298.521 262.293,298.354 262.408 C 298.188 262.522,297.401 267.652,296.604 273.808 C 295.808 279.963,294.368 291.120,293.404 298.600 C 292.441 306.080,291.437 313.865,291.174 315.900 L 290.695 319.600 255.309 319.600 L 219.922 319.600 216.733 321.900 C 205.475 330.019,204.086 330.673,198.924 330.283 C 194.963 329.983,192.892 328.937,186.200 323.854 L 180.600 319.600 145.176 319.600 L 109.752 319.600 108.849 312.500 C 105.861 288.981,102.414 262.680,102.306 262.573 C 102.237 262.504,89.135 252.972,73.190 241.391 C 57.246 229.811,44.061 220.089,43.891 219.788 C 43.722 219.487,43.137 216.607,42.591 213.388 C 40.103 198.697,42.056 181.377,47.652 168.505 L 48.481 166.600 99.867 218.200 L 151.253 269.800 145.108 262.200 C 141.728 258.020,134.569 249.200,129.200 242.600 C 113.225 222.965,79.869 182.000,67.804 167.200 C 61.617 159.610,55.440 152.021,54.077 150.336 C 51.136 146.698,51.145 146.792,53.223 140.683 C 56.263 131.751,60.036 124.624,65.653 117.200 C 68.852 112.973,76.157 105.200,76.536 105.621 C 76.678 105.778,92.122 132.263,150.616 232.663 C 158.967 246.997,165.844 258.683,165.898 258.631 C 165.951 258.580,160.982 247.932,154.855 234.969 C 148.728 222.006,136.958 197.090,128.700 179.600 C 120.442 162.110,107.624 134.962,100.215 119.272 C 87.673 92.708,86.785 90.683,87.317 89.872 C 89.997 85.785,98.448 77.701,104.767 73.179 C 111.590 68.296,126.739 61.006,127.819 62.085 C 128.029 62.296,133.565 81.626,153.798 152.800 C 159.458 172.710,165.959 195.570,168.244 203.600 C 170.529 211.630,174.505 225.619,177.079 234.687 C 179.653 243.755,181.816 251.117,181.885 251.048 C 181.955 250.979,181.552 248.599,180.991 245.761 C 176.365 222.372,143.847 59.150,143.358 56.868 C 143.013 55.255,142.792 53.882,142.866 53.817 C 149.839 47.673,175.347 42.041,189.400 43.543 " stroke="none" fill="#ed1e27" fill-rule="evenodd"></path><path id="path1" d="M195.305 7.887 C 195.914 7.979,196.814 7.977,197.305 7.882 C 197.797 7.787,197.300 7.711,196.200 7.714 C 195.100 7.717,194.697 7.795,195.305 7.887 M202.700 7.889 C 203.415 7.978,204.585 7.978,205.300 7.889 C 206.015 7.801,205.430 7.728,204.000 7.728 C 202.570 7.728,201.985 7.801,202.700 7.889 M7.724 196.200 C 7.726 197.520,7.801 198.012,7.890 197.293 C 7.979 196.574,7.977 195.494,7.886 194.893 C 7.795 194.292,7.722 194.880,7.724 196.200 M392.114 195.800 C 392.117 196.900,392.195 197.303,392.287 196.695 C 392.379 196.086,392.377 195.186,392.282 194.695 C 392.187 194.203,392.111 194.700,392.114 195.800 M7.724 203.400 C 7.726 204.720,7.801 205.212,7.890 204.493 C 7.979 203.774,7.977 202.694,7.886 202.093 C 7.795 201.492,7.722 202.080,7.724 203.400 M392.124 203.400 C 392.126 204.720,392.201 205.212,392.290 204.493 C 392.379 203.774,392.377 202.694,392.286 202.093 C 392.195 201.492,392.122 202.080,392.124 203.400 " stroke="none" fill="#f27c7d" fill-rule="evenodd"></path><path id="path2" d="M191.705 7.887 C 192.314 7.979,193.214 7.977,193.705 7.882 C 194.197 7.787,193.700 7.711,192.600 7.714 C 191.500 7.717,191.097 7.795,191.705 7.887 M207.105 7.883 C 207.602 7.979,208.322 7.975,208.705 7.875 C 209.087 7.775,208.680 7.696,207.800 7.701 C 206.920 7.705,206.607 7.787,207.105 7.883 M63.792 64.100 L 59.800 68.200 63.900 64.208 C 67.708 60.499,68.182 60.000,67.892 60.000 C 67.833 60.000,65.988 61.845,63.792 64.100 M333.400 61.600 C 334.259 62.480,335.052 63.200,335.162 63.200 C 335.272 63.200,334.659 62.480,333.800 61.600 C 332.941 60.720,332.148 60.000,332.038 60.000 C 331.928 60.000,332.541 60.720,333.400 61.600 M337.600 65.800 C 338.795 67.010,339.863 68.000,339.973 68.000 C 340.083 68.000,339.195 67.010,338.000 65.800 C 336.805 64.590,335.737 63.600,335.627 63.600 C 335.517 63.600,336.405 64.590,337.600 65.800 M7.709 192.400 C 7.709 193.390,7.787 193.795,7.882 193.300 C 7.978 192.805,7.978 191.995,7.882 191.500 C 7.787 191.005,7.709 191.410,7.709 192.400 M392.101 192.600 C 392.105 193.480,392.187 193.793,392.283 193.295 C 392.379 192.798,392.375 192.078,392.275 191.695 C 392.175 191.313,392.096 191.720,392.101 192.600 M7.701 207.000 C 7.705 207.880,7.787 208.193,7.883 207.695 C 7.979 207.198,7.975 206.478,7.875 206.095 C 7.775 205.713,7.696 206.120,7.701 207.000 M392.101 207.000 C 392.105 207.880,392.187 208.193,392.283 207.695 C 392.379 207.198,392.375 206.478,392.275 206.095 C 392.175 205.713,392.096 206.120,392.101 207.000 " stroke="none" fill="#feccca" fill-rule="evenodd"></path><path id="path3" d="M175.072 43.637 C 163.975 44.809,147.000 50.175,142.866 53.817 C 142.792 53.882,143.013 55.255,143.358 56.868 C 143.847 59.150,176.365 222.372,180.991 245.761 C 181.552 248.599,181.955 250.979,181.885 251.048 C 181.816 251.117,179.653 243.755,177.079 234.687 C 174.505 225.619,170.529 211.630,168.244 203.600 C 165.959 195.570,159.458 172.710,153.798 152.800 C 133.565 81.626,128.029 62.296,127.819 62.085 C 126.739 61.006,111.590 68.296,104.767 73.179 C 98.448 77.701,89.997 85.785,87.317 89.872 C 86.785 90.683,87.673 92.708,100.215 119.272 C 107.624 134.962,120.442 162.110,128.700 179.600 C 136.958 197.090,148.728 222.006,154.855 234.969 C 160.982 247.932,165.951 258.580,165.898 258.631 C 165.844 258.683,158.967 246.997,150.616 232.663 C 92.122 132.263,76.678 105.778,76.536 105.621 C 76.157 105.200,68.852 112.973,65.653 117.200 C 60.036 124.624,56.263 131.751,53.223 140.683 C 51.145 146.792,51.136 146.698,54.077 150.336 C 55.440 152.021,61.617 159.610,67.804 167.200 C 79.869 182.000,113.225 222.965,129.200 242.600 C 134.569 249.200,141.728 258.020,145.108 262.200 L 151.253 269.800 99.867 218.200 L 48.481 166.600 47.652 168.505 C 42.056 181.377,40.103 198.697,42.591 213.388 C 43.137 216.607,43.722 219.487,43.891 219.788 C 44.061 220.089,57.246 229.811,73.190 241.391 C 89.135 252.972,102.237 262.504,102.306 262.573 C 102.414 262.680,105.861 288.981,108.849 312.500 L 109.752 319.600 145.176 319.600 L 180.600 319.600 186.200 323.854 C 192.892 328.937,194.963 329.983,198.924 330.283 C 204.086 330.673,205.475 330.019,216.733 321.900 L 219.922 319.600 255.309 319.600 L 290.695 319.600 291.174 315.900 C 291.437 313.865,292.441 306.080,293.404 298.600 C 294.368 291.120,295.808 279.963,296.604 273.808 C 297.401 267.652,298.188 262.522,298.354 262.408 C 298.521 262.293,306.024 256.805,315.028 250.211 C 324.033 243.617,336.890 234.207,343.600 229.298 C 357.243 219.318,356.262 220.421,357.397 213.800 C 359.372 202.281,358.762 189.319,355.731 178.400 C 354.619 174.396,352.170 167.619,351.642 167.085 C 351.471 166.912,335.956 182.299,317.165 201.278 C 298.374 220.257,275.472 243.349,266.271 252.593 L 249.542 269.400 255.647 261.800 C 259.004 257.620,264.020 251.410,266.793 248.000 C 269.566 244.590,273.726 239.460,276.039 236.600 C 278.351 233.740,286.006 224.290,293.049 215.600 C 300.093 206.910,307.970 197.190,310.554 194.000 C 324.764 176.456,338.579 159.412,343.318 153.577 L 348.698 146.954 347.753 143.682 C 344.752 133.287,339.088 122.653,332.169 114.424 C 329.064 110.731,323.724 105.332,323.462 105.622 C 323.374 105.720,320.021 111.470,316.013 118.400 C 309.143 130.276,307.046 133.892,299.837 146.300 C 293.139 157.826,264.351 207.505,250.407 231.600 C 233.968 260.005,232.689 262.081,236.727 253.800 C 237.478 252.260,238.497 250.100,238.992 249.000 C 239.486 247.900,248.217 229.270,258.393 207.600 C 281.821 157.710,283.951 153.173,295.106 129.400 C 300.165 118.620,306.316 105.510,308.776 100.268 C 312.934 91.409,313.208 90.674,312.667 89.868 C 306.165 80.183,290.458 68.579,276.866 63.418 C 271.995 61.569,272.172 61.528,271.242 64.700 C 270.806 66.185,265.292 85.400,258.988 107.400 C 252.685 129.400,243.939 159.910,239.554 175.200 C 235.169 190.490,228.480 213.835,224.691 227.077 C 220.901 240.319,217.754 251.025,217.697 250.867 C 217.640 250.709,219.135 242.935,221.020 233.590 C 222.904 224.246,226.856 204.630,229.801 190.000 C 238.275 147.911,255.121 64.290,256.223 58.846 C 256.775 56.122,257.175 53.849,257.113 53.796 C 253.779 50.933,239.513 45.946,230.000 44.318 C 224.117 43.311,209.017 43.001,208.477 43.876 C 208.315 44.138,207.771 55.478,207.269 69.076 C 206.767 82.674,206.190 97.670,205.987 102.400 C 205.784 107.130,205.429 116.220,205.197 122.600 C 204.965 128.980,204.421 143.470,203.988 154.800 C 202.877 183.877,202.542 192.686,201.402 222.800 C 200.339 250.893,200.175 254.104,200.067 249.067 C 200.030 247.344,199.729 239.604,199.398 231.867 C 199.067 224.130,197.539 186.480,196.003 148.200 C 194.466 109.920,193.015 74.010,192.777 68.400 C 192.539 62.790,192.221 54.960,192.072 51.000 L 191.800 43.800 189.400 43.543 C 186.103 43.191,178.846 43.238,175.072 43.637 " stroke="none" fill="#fdd304" fill-rule="evenodd"></path><path id="path4" d="M0.000 185.400 L 0.000 370.800 200.000 370.800 L 400.000 370.800 400.000 185.400 L 400.000 0.000 200.000 0.000 L 0.000 0.000 0.000 185.400 M214.669 8.207 C 308.649 15.783,382.670 88.496,391.588 182.000 C 393.151 198.381,392.389 215.001,389.148 235.267 C 388.625 238.536,390.110 237.217,373.000 249.599 C 357.497 260.817,351.198 265.386,348.200 267.587 C 347.100 268.395,344.490 270.291,342.400 271.802 C 340.310 273.312,336.620 275.990,334.200 277.754 C 331.780 279.517,329.735 281.004,329.656 281.057 C 329.577 281.110,329.271 283.099,328.976 285.477 C 328.681 287.855,327.164 299.880,325.605 312.200 C 321.493 344.688,320.406 353.363,320.403 353.700 C 320.401 353.865,298.355 354.000,271.412 354.000 L 222.423 354.000 218.512 356.671 C 205.555 365.521,195.216 365.513,181.234 356.643 L 177.069 354.000 128.534 354.000 C 82.579 354.000,80.000 353.963,79.998 353.300 C 79.997 352.915,79.374 347.740,78.614 341.800 C 76.896 328.374,73.482 301.464,72.030 289.902 C 71.429 285.118,70.861 281.135,70.768 281.051 C 70.676 280.967,67.360 278.570,63.400 275.724 C 59.440 272.879,50.620 266.525,43.800 261.603 C 36.980 256.682,29.330 251.174,26.800 249.364 C 24.270 247.554,19.774 244.302,16.809 242.137 L 11.417 238.200 10.925 235.400 C -11.161 109.726,88.967 -1.926,214.669 8.207 " stroke="none" fill="#fffeff" fill-rule="evenodd"></path></g></svg>